<?xml version="1.0" encoding="UTF-8"?>
<svg xmlns="http://www.w3.org/2000/svg" xmlns:xlink="http://www.w3.org/1999/xlink" width="500pt" height="500pt" viewBox="0 0 500 500" version="1.1">
<g id="surface1">
<path style=" stroke:none;fill-rule:nonzero;fill:#5B5B5B;fill-opacity:1;" d="M 423.796875 8.371094 L 414.1875 10.851563 L 325.210938 34.722656 C 324.667969 34.839844 324.203125 34.878906 323.660156 35.03125 L 101.996094 94.554688 L 11.78125 118.738281 L 2.171875 121.21875 L 4.648438 130.828125 L 26.042969 209.574219 L 26.042969 210.195313 L 59.523438 333.890625 L 59.523438 456.347656 L 496.03125 456.347656 L 496.03125 198.414063 L 474.949219 198.414063 L 426.277344 17.671875 Z M 409.535156 32.550781 L 420.695313 74.40625 C 418.644531 73.902344 416.511719 73.203125 414.496094 72.855469 C 408.21875 71.847656 402.289063 71.265625 397.445313 70.683594 C 392.601563 70.101563 388.882813 69.058594 388.453125 68.824219 C 388.066406 68.59375 385.394531 65.996094 382.253906 62.003906 C 379.117188 58.011719 375.085938 52.9375 370.164063 48.054688 C 368.921875 46.8125 367.566406 45.496094 366.132813 44.332031 Z M 337.921875 53.011719 C 345.828125 52.976563 350.789063 56.617188 356.210938 62.003906 C 359.816406 65.609375 363.070313 70.140625 366.445313 74.40625 C 369.816406 78.667969 372.992188 82.96875 378.535156 86.183594 C 384.074219 89.363281 389.421875 89.828125 394.964844 90.527344 C 400.507813 91.222656 406.28125 91.535156 411.394531 92.386719 C 416.511719 93.238281 420.734375 94.515625 423.488281 96.105469 C 426.007813 97.578125 427.285156 98.859375 428.136719 101.375 C 428.214844 101.609375 428.371094 101.726563 428.449219 101.996094 L 454.179688 198.414063 L 336.371094 198.414063 C 336.757813 187.871094 335.558594 177.019531 332.652344 166.171875 C 322.148438 126.992188 291.378906 98.46875 256.386719 92.074219 C 250.574219 91.03125 244.683594 90.601563 238.714844 90.835938 C 232.746094 91.066406 226.742188 92 220.734375 93.625 C 176.867188 105.40625 150.863281 150.902344 157.179688 198.414063 L 59.523438 198.414063 L 59.523438 257.625 L 44.953125 203.683594 C 44.605469 201.472656 44.875 199.769531 46.191406 197.484375 C 47.78125 194.730469 50.882813 191.164063 54.875 187.871094 C 58.863281 184.578125 63.746094 181.632813 68.203125 178.261719 C 72.660156 174.890625 76.808594 171.710938 79.984375 166.171875 L 80.296875 166.171875 C 83.511719 160.628906 83.859375 155.398438 84.636719 150.050781 C 85.410156 144.703125 86.109375 139.160156 87.425781 134.238281 C 90.097656 124.394531 93.625 117.457031 107.265625 113.777344 L 328.929688 54.253906 C 332.339844 53.324219 335.285156 53.011719 337.921875 53.011719 Z M 239.335938 110.367188 C 271.539063 109.320313 303.355469 133.8125 313.429688 171.441406 C 315.871094 180.585938 316.917969 189.65625 316.53125 198.414063 L 177.332031 198.414063 C 170.78125 158.652344 191.746094 121.644531 225.695313 112.539063 C 230.265625 111.296875 234.722656 110.523438 239.335938 110.367188 Z M 386.59375 122.148438 C 367.527344 122.148438 351.871094 137.804688 351.871094 156.871094 C 351.871094 175.9375 367.527344 191.59375 386.59375 191.59375 C 405.660156 191.59375 421.316406 175.9375 421.316406 156.871094 C 421.316406 137.804688 405.660156 122.148438 386.59375 122.148438 Z M 69.753906 124.007813 C 69.09375 125.714844 68.667969 127.300781 68.203125 128.96875 C 66.382813 135.671875 65.839844 141.910156 65.105469 146.949219 C 64.367188 151.988281 63.167969 155.863281 62.933594 156.25 C 62.703125 156.675781 59.988281 159.503906 56.113281 162.449219 C 52.238281 165.394531 47.394531 168.652344 42.472656 172.679688 C 40.804688 174.039063 39.140625 175.472656 37.511719 177.019531 L 26.351563 135.480469 Z M 386.59375 141.988281 C 394.925781 141.988281 401.476563 148.539063 401.476563 156.871094 C 401.476563 165.203125 394.925781 171.75 386.59375 171.75 C 378.261719 171.75 371.714844 165.203125 371.714844 156.871094 C 371.714844 148.539063 378.261719 141.988281 386.59375 141.988281 Z M 79.363281 218.253906 L 124.316406 218.253906 C 123.234375 219.726563 122.417969 221.394531 121.527344 222.902344 C 118.039063 228.910156 115.480469 234.996094 113.46875 239.644531 C 111.453125 244.296875 109.4375 247.394531 109.128906 247.707031 C 108.777344 248.054688 105.601563 250.226563 101.066406 252.046875 C 96.53125 253.867188 91.03125 255.960938 85.253906 258.554688 C 83.316406 259.449219 81.339844 260.609375 79.363281 261.65625 Z M 163.070313 218.253906 L 392.484375 218.253906 C 406.628906 218.253906 411.863281 223.988281 416.976563 232.824219 C 419.535156 237.242188 421.664063 242.433594 423.796875 247.394531 C 425.929688 252.355469 427.632813 257.433594 432.167969 261.964844 C 436.664063 266.460938 441.894531 268.246094 447.046875 270.335938 C 452.203125 272.429688 457.511719 274.40625 462.238281 276.539063 C 466.96875 278.667969 470.84375 281.109375 473.089844 283.359375 C 475.339844 285.605469 476.191406 287 476.191406 290.179688 L 476.191406 389.386719 C 476.191406 390.78125 476.074219 391.050781 474.949219 392.175781 C 473.828125 393.300781 471.230469 394.808594 468.128906 396.207031 C 465.03125 397.601563 461.582031 399.074219 457.898438 400.546875 C 454.21875 402.019531 450.1875 403.296875 446.429688 407.054688 C 442.628906 410.855469 441.429688 414.417969 439.917969 417.90625 C 438.40625 421.394531 436.894531 425 435.269531 427.828125 C 431.972656 433.484375 429.765625 436.507813 421.007813 436.507813 L 134.546875 436.507813 C 125.789063 436.507813 123.582031 433.484375 120.289063 427.828125 C 118.660156 425 117.148438 421.433594 115.636719 417.90625 C 114.125 414.378906 112.925781 410.855469 109.128906 407.054688 C 105.367188 403.296875 101.335938 402.019531 97.65625 400.546875 C 93.976563 399.074219 90.527344 397.601563 87.425781 396.207031 C 84.324219 394.808594 81.730469 393.300781 80.605469 392.175781 C 79.480469 391.050781 79.363281 390.78125 79.363281 389.386719 L 79.363281 332.339844 L 79.675781 332.339844 L 79.363281 331.101563 L 79.363281 290.179688 C 79.363281 287 80.21875 285.605469 82.464844 283.359375 C 84.714844 281.109375 88.589844 278.667969 93.316406 276.539063 C 98.042969 274.40625 103.351563 272.429688 108.507813 270.335938 C 113.660156 268.246094 118.894531 266.460938 123.386719 261.964844 C 127.921875 257.433594 129.589844 252.355469 131.757813 247.394531 C 133.929688 242.433594 136.019531 237.242188 138.578125 232.824219 C 143.695313 223.988281 148.925781 218.253906 163.070313 218.253906 Z M 431.238281 218.253906 L 476.191406 218.253906 L 476.191406 261.65625 C 474.253906 260.609375 472.238281 259.449219 470.300781 258.554688 C 464.527344 255.960938 459.023438 253.867188 454.488281 252.046875 C 449.953125 250.226563 446.777344 248.054688 446.429688 247.707031 C 446.117188 247.394531 444.101563 244.296875 442.089844 239.644531 C 440.074219 234.996094 437.515625 228.910156 434.027344 222.902344 C 433.136719 221.394531 432.324219 219.726563 431.238281 218.253906 Z M 277.777344 228.175781 C 227.902344 228.175781 188.492188 273.320313 188.492188 327.382813 C 188.492188 381.441406 227.902344 426.585938 277.777344 426.585938 C 327.652344 426.585938 367.0625 381.441406 367.0625 327.382813 C 367.0625 273.320313 327.652344 228.175781 277.777344 228.175781 Z M 277.777344 248.015625 C 315.5625 248.015625 347.222656 282.855469 347.222656 327.382813 C 347.222656 371.90625 315.5625 406.746094 277.777344 406.746094 C 239.992188 406.746094 208.332031 371.90625 208.332031 327.382813 C 208.332031 282.855469 239.992188 248.015625 277.777344 248.015625 Z M 133.929688 297.617188 C 114.863281 297.617188 99.207031 313.273438 99.207031 332.339844 C 99.207031 351.40625 114.863281 367.0625 133.929688 367.0625 C 152.996094 367.0625 168.652344 351.40625 168.652344 332.339844 C 168.652344 313.273438 152.996094 297.617188 133.929688 297.617188 Z M 421.628906 297.617188 C 402.5625 297.617188 386.90625 313.273438 386.90625 332.339844 C 386.90625 351.40625 402.5625 367.0625 421.628906 367.0625 C 440.691406 367.0625 456.347656 351.40625 456.347656 332.339844 C 456.347656 313.273438 440.691406 297.617188 421.628906 297.617188 Z M 133.929688 317.460938 C 142.261719 317.460938 148.808594 324.007813 148.808594 332.339844 C 148.808594 340.671875 142.261719 347.222656 133.929688 347.222656 C 125.597656 347.222656 119.046875 340.671875 119.046875 332.339844 C 119.046875 324.007813 125.597656 317.460938 133.929688 317.460938 Z M 421.628906 317.460938 C 429.957031 317.460938 436.507813 324.007813 436.507813 332.339844 C 436.507813 340.671875 429.957031 347.222656 421.628906 347.222656 C 413.296875 347.222656 406.746094 340.671875 406.746094 332.339844 C 406.746094 324.007813 413.296875 317.460938 421.628906 317.460938 Z M 79.363281 414.496094 C 83.433594 416.316406 87.230469 417.636719 90.214844 418.835938 C 93.238281 420.078125 95.292969 421.433594 94.867188 421.007813 C 94.441406 420.582031 95.949219 422.789063 97.347656 425.96875 C 98.585938 428.835938 100.175781 432.59375 102.304688 436.507813 L 79.363281 436.507813 Z M 476.191406 414.496094 L 476.191406 436.507813 L 453.25 436.507813 C 455.378906 432.59375 456.96875 428.835938 458.210938 425.96875 C 459.605469 422.789063 461.117188 420.582031 460.691406 421.007813 C 460.261719 421.433594 462.277344 420.078125 465.339844 418.835938 C 468.324219 417.636719 472.121094 416.316406 476.191406 414.496094 Z "/>
</g>
</svg>
