<?xml version="1.0" encoding="UTF-8"?>
<svg xmlns="http://www.w3.org/2000/svg" xmlns:xlink="http://www.w3.org/1999/xlink" width="512pt" height="512pt" viewBox="0 0 512 512" version="1.1">
<g id="surface1">
<path style=" stroke:none;fill-rule:nonzero;fill:#0E0101;fill-opacity:1;" d="M 248 16 C 120.0625 16 16 120.0625 16 248 C 16 375.9375 120.0625 480 248 480 C 375.9375 480 480 375.9375 480 248 C 480 120.0625 375.9375 16 248 16 Z M 248 32 C 367.09375 32 464 128.90625 464 248 C 464 367.09375 367.09375 464 248 464 C 128.90625 464 32 367.09375 32 248 C 32 128.90625 128.90625 32 248 32 Z M 248 64 C 146.53125 64 64 146.53125 64 248 C 64 349.46875 146.53125 432 248 432 C 349.46875 432 432 349.46875 432 248 C 432 191.15625 406.34375 138.40625 361.59375 103.25 C 358.125 100.53125 353.125 101.125 350.375 104.59375 C 347.65625 108.0625 348.25 113.09375 351.71875 115.84375 C 392.5625 147.9375 416 196.125 416 248 C 416 340.625 340.625 416 248 416 C 155.375 416 80 340.625 80 248 C 80 155.375 155.375 80 248 80 C 256.21875 80 264.46875 80.59375 272.5 81.78125 C 276.90625 82.4375 280.96875 79.40625 281.59375 75.03125 C 282.21875 70.65625 279.21875 66.59375 274.84375 65.9375 C 266.03125 64.65625 257 64 248 64 Z M 308.25 74.75 C 305.15625 74.90625 302.28125 76.875 301.125 80 C 299.625 84.125 301.75 88.71875 305.90625 90.25 C 312.15625 92.53125 318.375 95.28125 324.375 98.34375 C 325.5625 98.9375 326.8125 99.21875 328.03125 99.21875 C 330.9375 99.21875 333.75 97.625 335.15625 94.84375 C 337.15625 90.90625 335.59375 86.09375 331.65625 84.09375 C 325.09375 80.71875 318.28125 77.75 311.40625 75.21875 C 310.375 74.84375 309.3125 74.6875 308.25 74.75 Z M 248 112 C 243.59375 112 240 115.59375 240 120 L 240 136 C 240 140.40625 243.59375 144 248 144 C 252.40625 144 256 140.40625 256 136 L 256 120 C 256 115.59375 252.40625 112 248 112 Z M 295.84375 121.34375 C 292.71875 121.375 289.78125 123.25 288.53125 126.34375 L 282.53125 141.15625 C 280.875 145.25 282.84375 149.9375 286.96875 151.59375 C 287.9375 151.96875 288.96875 152.15625 289.96875 152.15625 C 293.125 152.15625 296.125 150.28125 297.375 147.15625 L 303.375 132.3125 C 305.03125 128.21875 303.03125 123.5625 298.9375 121.90625 C 297.90625 121.5 296.875 121.3125 295.84375 121.34375 Z M 336.78125 147.90625 C 334.71875 147.96875 332.71875 148.78125 331.15625 150.375 L 320.03125 161.875 C 316.96875 165.0625 317.0625 170.125 320.25 173.1875 C 321.78125 174.6875 323.78125 175.4375 325.78125 175.4375 C 327.90625 175.4375 329.96875 174.59375 331.53125 173 L 342.65625 161.5 C 345.75 158.3125 345.65625 153.25 342.5 150.15625 C 340.90625 148.625 338.84375 147.875 336.78125 147.90625 Z M 248 160 C 243.59375 160 240 163.59375 240 168 L 240 234.21875 C 235.25 237 232 242.09375 232 248 C 232 256.8125 239.1875 264 248 264 C 249.4375 264 250.78125 263.75 252.09375 263.40625 L 302.34375 313.65625 C 303.90625 315.21875 305.9375 316 308 316 C 310.0625 316 312.09375 315.21875 313.65625 313.65625 C 316.78125 310.53125 316.78125 305.46875 313.65625 302.34375 L 263.40625 252.09375 C 263.75 250.78125 264 249.4375 264 248 C 264 242.09375 260.75 237 256 234.21875 L 256 168 C 256 163.59375 252.40625 160 248 160 Z M 364.78125 187.9375 C 363.75 187.96875 362.6875 188.1875 361.6875 188.625 L 347.0625 195.125 C 343.03125 196.9375 341.21875 201.65625 343 205.71875 C 344.34375 208.6875 347.25 210.46875 350.3125 210.46875 C 351.40625 210.46875 352.5 210.21875 353.5625 209.75 L 368.1875 203.25 C 372.21875 201.4375 374.03125 196.71875 372.25 192.6875 C 370.875 189.65625 367.90625 187.875 364.78125 187.9375 Z M 120 240 C 115.59375 240 112 243.59375 112 248 C 112 252.40625 115.59375 256 120 256 L 136 256 C 140.40625 256 144 252.40625 144 248 C 144 243.59375 140.40625 240 136 240 Z M 360 240 C 355.59375 240 352 243.59375 352 248 C 352 252.40625 355.59375 256 360 256 L 376 256 C 380.40625 256 384 252.40625 384 248 C 384 243.59375 380.40625 240 376 240 Z M 351.71875 281.96875 C 348.59375 282 345.65625 283.875 344.40625 286.96875 C 342.78125 291.0625 344.75 295.71875 348.84375 297.375 L 363.6875 303.375 C 364.65625 303.78125 365.6875 303.96875 366.65625 303.96875 C 369.84375 303.96875 372.84375 302.0625 374.09375 298.9375 C 375.75 294.84375 373.78125 290.1875 369.65625 288.53125 L 354.84375 282.53125 C 353.8125 282.125 352.75 281.9375 351.71875 281.96875 Z M 328.4375 317.78125 C 326.40625 317.84375 324.34375 318.65625 322.8125 320.25 C 321.59375 321.5 321.03125 323.09375 320.78125 324.6875 C 319.4375 327.625 319.90625 331.21875 322.34375 333.65625 L 332.84375 344.15625 C 334.40625 345.71875 336.4375 346.5 338.5 346.5 C 340.5625 346.5 342.59375 345.71875 344.15625 344.15625 C 344.4375 343.875 344.59375 343.46875 344.84375 343.15625 C 345.15625 342.90625 345.53125 342.78125 345.84375 342.46875 C 348.90625 339.28125 348.8125 334.21875 345.625 331.15625 L 334.125 320.03125 C 332.53125 318.5 330.46875 317.75 328.4375 317.78125 Z M 248 352 C 243.59375 352 240 355.59375 240 360 L 240 376 C 240 380.40625 243.59375 384 248 384 C 252.40625 384 256 380.40625 256 376 L 256 360 C 256 355.59375 252.40625 352 248 352 Z "/>
</g>
</svg>
