<?xml version="1.0" encoding="UTF-8"?>
<svg xmlns="http://www.w3.org/2000/svg" xmlns:xlink="http://www.w3.org/1999/xlink" width="480pt" height="480pt" viewBox="0 0 480 480" version="1.1">
<g id="surface1">
<path style=" stroke:none;fill-rule:nonzero;fill:#0E0101;fill-opacity:1;" d="M 393 60 C 381.65625 60 372.375 69.210938 372.09375 80.507813 C 322.710938 125.085938 258.632813 150 192 150 L 108 150 C 100.148438 150 93.46875 155.179688 91.03125 162.257813 C 63.609375 164.765625 42 187.921875 42 216 L 42 228 C 42 255.632813 63.1875 277.640625 90 280.78125 L 90 282 L 91.054688 282 C 93.023438 287.390625 97.5 291.585938 103.054688 293.226563 C 126.75 317.90625 135.703125 367.335938 138.375 407.859375 C 139.78125 428.765625 160.78125 442.96875 180.679688 436.335938 L 201.5625 429.375 C 217.804688 423.9375 227.109375 406.546875 222.304688 390.023438 C 216.960938 371.578125 208.453125 363.960938 203.039063 342 L 208.992188 342 C 219.398438 342 227.578125 332.601563 226.148438 322.3125 L 222.492188 295.804688 C 277.96875 302.203125 330.304688 325.757813 372.09375 363.492188 C 372.375 374.789063 381.65625 384 393 384 C 404.53125 384 414 374.53125 414 363 L 414 250.78125 C 425.554688 248.320313 434.320313 239.554688 436.78125 228 L 438 228 L 438 222 C 438 207.5625 427.640625 195.421875 414 192.609375 L 414 81 C 414 69.46875 404.53125 60 393 60 Z M 393 72 C 398.039063 72 402 75.960938 402 81 L 402 363 C 402 368.039063 398.039063 372 393 372 C 387.960938 372 384 368.039063 384 363 L 384 357.84375 L 382.054688 356.0625 C 331.710938 309.84375 266.226563 284.039063 198 282.5625 L 198 161.4375 C 266.226563 159.960938 331.710938 134.15625 382.054688 87.9375 L 384 86.15625 L 384 81 C 384 75.960938 387.960938 72 393 72 Z M 378 108 C 374.695313 108 372 110.695313 372 114 C 372 117.304688 374.695313 120 378 120 C 381.304688 120 384 117.304688 384 114 C 384 110.695313 381.304688 108 378 108 Z M 378 132 C 374.695313 132 372 134.695313 372 138 C 372 141.304688 374.695313 144 378 144 C 381.304688 144 384 141.304688 384 138 C 384 134.695313 381.304688 132 378 132 Z M 378 156 C 374.695313 156 372 158.695313 372 162 C 372 165.304688 374.695313 168 378 168 C 381.304688 168 384 165.304688 384 162 C 384 158.695313 381.304688 156 378 156 Z M 108 162 L 186 162 L 186 282 L 108 282 C 104.601563 282 102 279.398438 102 276 L 102 168 C 102 164.601563 104.601563 162 108 162 Z M 90 175.21875 L 90 268.78125 C 78.421875 267.070313 68.367188 260.90625 61.828125 252 L 66 252 L 66 240 L 55.804688 240 C 54.65625 236.226563 54 232.195313 54 228 L 66 228 L 66 216 L 54 216 C 54 211.804688 54.65625 207.773438 55.804688 204 L 66 204 L 66 192 L 61.828125 192 C 68.367188 183.09375 78.421875 176.929688 90 175.21875 Z M 120 180 L 120 192 L 144 192 L 144 180 Z M 378 180 C 374.695313 180 372 182.695313 372 186 C 372 189.304688 374.695313 192 378 192 C 381.304688 192 384 189.304688 384 186 C 384 182.695313 381.304688 180 378 180 Z M 378 204 C 374.695313 204 372 206.695313 372 210 C 372 213.304688 374.695313 216 378 216 C 381.304688 216 384 213.304688 384 210 C 384 206.695313 381.304688 204 378 204 Z M 414 206.460938 C 420.679688 209.085938 426 214.335938 426 222 C 426 229.664063 420.679688 234.914063 414 237.539063 Z M 120 216 L 120 228 L 144 228 L 144 216 Z M 378 228 C 374.695313 228 372 230.695313 372 234 C 372 237.304688 374.695313 240 378 240 C 381.304688 240 384 237.304688 384 234 C 384 230.695313 381.304688 228 378 228 Z M 120 252 L 120 264 L 144 264 L 144 252 Z M 378 252 C 374.695313 252 372 254.695313 372 258 C 372 261.304688 374.695313 264 378 264 C 381.304688 264 384 261.304688 384 258 C 384 254.695313 381.304688 252 378 252 Z M 378 276 C 374.695313 276 372 278.695313 372 282 C 372 285.304688 374.695313 288 378 288 C 381.304688 288 384 285.304688 384 282 C 384 278.695313 381.304688 276 378 276 Z M 117.867188 294 L 186.398438 294 C 187.546875 360.234375 203.90625 369.65625 210.796875 393.375 C 213.796875 403.78125 208.078125 414.5625 197.742188 418.007813 L 176.882813 424.945313 C 164.15625 429.1875 151.265625 420.46875 150.375 407.0625 C 147.84375 369.234375 140.25 323.929688 117.867188 294 Z M 198.09375 294.117188 C 202.148438 294.234375 206.203125 294.421875 210.257813 294.703125 L 214.289063 323.929688 C 214.734375 327.257813 212.34375 330 208.992188 330 L 200.648438 330 C 199.21875 320.625 198.304688 308.882813 198.09375 294.117188 Z M 378 300 C 374.695313 300 372 302.695313 372 306 C 372 309.304688 374.695313 312 378 312 C 381.304688 312 384 309.304688 384 306 C 384 302.695313 381.304688 300 378 300 Z M 378 324 C 374.695313 324 372 326.695313 372 330 C 372 333.304688 374.695313 336 378 336 C 381.304688 336 384 333.304688 384 330 C 384 326.695313 381.304688 324 378 324 Z "/>
</g>
</svg>
