<?xml version="1.0" encoding="UTF-8"?>
<svg xmlns="http://www.w3.org/2000/svg" xmlns:xlink="http://www.w3.org/1999/xlink" width="512pt" height="512pt" viewBox="0 0 512 512" version="1.1">
<g id="surface1">
<path style=" stroke:none;fill-rule:nonzero;fill:#0E0101;fill-opacity:1;" d="M 208 16 C 190.375 16 165.21875 21.5 149.53125 32.0625 C 119.75 33.125 99.34375 54.0625 96.03125 87.21875 C 93.96875 107.6875 95.875 122.34375 97.09375 132.03125 C 97.53125 135.40625 98 139.21875 97.84375 140.34375 C 97.5625 141.84375 97.34375 143.34375 97.125 144.84375 C 95.8125 144.90625 94.625 145.09375 93.625 145.375 C 86.4375 147.3125 81.375 153.71875 79.375 163.46875 C 77.78125 171.28125 78.28125 180.78125 80.8125 190.21875 C 85.09375 206.1875 94.0625 218.1875 103.875 221.875 C 108.9375 237.375 116.375 252.78125 125.625 266.65625 L 51.875 309.375 C 19.875 327.875 0 362.375 0 399.34375 L 0 456 C 0 469.21875 10.78125 480 24 480 L 230.125 480 L 227.28125 499.65625 C 226.9375 502.15625 227.78125 504.65625 229.5625 506.46875 C 231.0625 507.96875 233.09375 508.78125 235.21875 508.78125 C 235.59375 508.78125 235.96875 508.78125 236.375 508.71875 L 275.71875 503.09375 L 326.8125 497.65625 C 328.65625 497.46875 330.3125 496.65625 331.625 495.375 L 474.375 352.15625 L 496.96875 329.53125 C 504.53125 322 508.71875 311.9375 508.71875 301.25 C 508.6875 290.5625 504.53125 280.53125 496.96875 272.96875 L 463.03125 239.03125 C 447.4375 223.4375 422.0625 223.4375 406.46875 239.03125 L 389.875 255.59375 L 389.875 255.625 L 388.625 256.84375 L 383.84375 261.65625 C 383.8125 261.6875 383.84375 261.6875 383.8125 261.71875 L 359.53125 286.03125 C 359.46875 286.125 359.34375 286.15625 359.25 286.25 C 359.1875 286.3125 359.1875 286.4375 359.09375 286.5 L 346.5 299.15625 L 290.375 266.65625 C 299.625 252.78125 307.0625 237.375 312.125 221.875 C 321.9375 218.1875 330.90625 206.1875 335.1875 190.21875 C 341.09375 168.1875 335.5625 148.90625 322.375 145.375 C 321.375 145.125 320.1875 144.90625 318.875 144.875 C 317.75 136.3125 315.59375 128.3125 311.53125 117.375 C 311.4375 117.03125 311.34375 116.75 311.25 116.5 C 314.0625 116.71875 318.59375 117.875 322.28125 119.40625 C 325.0625 120.5625 328.21875 120.0625 330.5 118.125 C 332.75 116.21875 333.8125 113.1875 333.15625 110.28125 C 320.28125 51.25 276.46875 16 216 16 Z M 208 32 L 216 32 C 264.5625 32 299.625 56.8125 314 100.65625 C 308.5 100.03125 302.78125 100.6875 298.84375 104.5 C 295.78125 107.40625 292.90625 113 296.53125 122.875 C 301.46875 136.3125 303.25 144.21875 303.75 155.46875 C 303.90625 158.34375 305.5625 160.90625 308.09375 162.21875 C 310.65625 163.5 313.71875 163.34375 316.125 161.78125 C 317.40625 160.9375 318.125 160.84375 318.25 160.84375 C 320.1875 161.5 323.6875 171.25 319.75 186.0625 C 315.78125 200.8125 308.25 207.03125 305.875 207.03125 C 302.34375 207.03125 299.21875 209.375 298.21875 212.75 C 284.71875 258.09375 249.40625 304 208 304 C 166.5625 304 131.28125 258.09375 117.8125 212.75 C 116.8125 209.375 113.6875 207.03125 110.125 207.03125 C 107.78125 207.03125 100.21875 200.8125 96.28125 186.0625 C 94.40625 179.09375 93.96875 172.03125 95.0625 166.65625 C 95.96875 162.1875 97.53125 160.875 97.71875 160.84375 C 97.75 160.84375 98.4375 160.84375 99.90625 161.78125 C 102.3125 163.34375 105.34375 163.5 107.90625 162.21875 C 110.4375 160.90625 112.125 158.34375 112.25 155.46875 C 112.4375 151.3125 112.875 147.125 113.59375 143.125 C 114.1875 139.6875 113.71875 135.84375 112.96875 130 C 111.8125 121.03125 110.09375 107.46875 111.96875 88.8125 C 114.53125 63.28125 129.5 48 152.125 48 C 153.875 48 155.5625 47.4375 156.9375 46.40625 C 167.875 38.1875 189.84375 32 208 32 Z M 164.21875 81 C 158.5 80.5 152.75 83.125 149.46875 88.125 L 136.625 107.59375 C 134.1875 111.28125 135.21875 116.25 138.90625 118.6875 C 140.25 119.59375 141.78125 120 143.28125 120 C 145.90625 120 148.4375 118.75 150 116.40625 L 162.84375 96.9375 L 175.34375 103.03125 C 198.125 114.125 223.53125 120 248.875 120 L 269.34375 120 C 273.75 120 277.34375 116.40625 277.34375 112 C 277.34375 107.59375 273.75 104 269.34375 104 L 248.875 104 C 225.96875 104 202.9375 98.6875 182.34375 88.625 L 169.84375 82.53125 C 168.03125 81.65625 166.125 81.15625 164.21875 81 Z M 434.75 243.34375 C 440.875 243.3125 447.03125 245.65625 451.71875 250.34375 L 485.65625 284.28125 C 490.1875 288.8125 492.6875 294.84375 492.6875 301.25 C 492.6875 307.65625 490.1875 313.6875 485.65625 318.21875 L 468.6875 335.1875 L 400.8125 267.3125 L 417.78125 250.34375 C 422.46875 245.65625 428.59375 243.34375 434.75 243.34375 Z M 389.5 278.625 L 457.375 346.5 L 444.15625 359.78125 L 376.25 291.90625 Z M 135.25 279.53125 C 154.71875 303.28125 180.03125 320 208 320 C 235.96875 320 261.25 303.28125 280.71875 279.53125 L 334.78125 310.875 L 241.125 404.875 C 239.84375 406.125 239.03125 407.78125 238.84375 409.59375 L 232.96875 460.0625 L 232.375 464 L 24 464 C 19.59375 464 16 460.40625 16 456 L 16 399.34375 C 16 368.0625 32.8125 338.875 59.90625 323.1875 Z M 364.96875 303.25 L 432.875 371.125 L 331.625 472.65625 L 328.03125 437.75 C 327.59375 433.65625 324.1875 430.5625 320.09375 430.5625 L 305.46875 430.5625 L 305.46875 419.25 L 348.375 376.34375 C 351.5 373.1875 351.5 368.15625 348.375 365 C 345.21875 361.875 340.1875 361.875 337.03125 365 L 294.5 407.5625 L 264.15625 404.375 Z M 144.5 320 C 141.40625 319.8125 138.3125 321.46875 136.84375 324.40625 C 134.875 328.375 136.46875 333.1875 140.40625 335.15625 L 204.40625 367.15625 C 205.5625 367.71875 206.78125 368 208 368 C 209.21875 368 210.46875 367.71875 211.59375 367.15625 L 275.59375 335.15625 C 279.53125 333.1875 281.125 328.375 279.15625 324.40625 C 277.1875 320.46875 272.375 318.875 268.40625 320.84375 L 208 351.0625 L 147.59375 320.84375 C 146.59375 320.34375 145.5625 320.09375 144.5 320 Z M 48 416 C 43.5625 416 40 419.59375 40 424 L 40 440 C 40 444.40625 43.5625 448 48 448 C 52.4375 448 56 444.40625 56 440 L 56 424 C 56 419.59375 52.4375 416 48 416 Z M 88 416 C 83.5625 416 80 419.59375 80 424 L 80 440 C 80 444.40625 83.5625 448 88 448 C 92.4375 448 96 444.40625 96 440 L 96 424 C 96 419.59375 92.4375 416 88 416 Z M 128 416 C 123.5625 416 120 419.59375 120 424 L 120 440 C 120 444.40625 123.5625 448 128 448 C 132.4375 448 136 444.40625 136 440 L 136 424 C 136 419.59375 132.4375 416 128 416 Z M 168 416 C 163.5625 416 160 419.59375 160 424 L 160 440 C 160 444.40625 163.5625 448 168 448 C 172.4375 448 176 444.40625 176 440 L 176 424 C 176 419.59375 172.4375 416 168 416 Z M 208 416 C 203.5625 416 200 419.59375 200 424 L 200 440 C 200 444.40625 203.5625 448 208 448 C 212.4375 448 216 444.40625 216 440 L 216 424 C 216 419.59375 212.4375 416 208 416 Z M 253.78125 419.375 L 289.46875 423.125 L 289.46875 438.53125 C 289.46875 442.96875 293.03125 446.53125 297.46875 446.53125 L 312.875 446.53125 L 316.59375 482.625 L 277.75 486.75 L 249.25 458.25 Z "/>
</g>
</svg>
