<?xml version="1.0" encoding="UTF-8"?>
<svg xmlns="http://www.w3.org/2000/svg" xmlns:xlink="http://www.w3.org/1999/xlink" width="400pt" height="400pt" viewBox="0 0 400 400" version="1.1">
<g id="surface1">
<path style=" stroke:none;fill-rule:nonzero;fill:#0E0101;fill-opacity:1;" d="M 102.859375 71.765625 C 89.734375 71.765625 80.328125 85.171875 80.328125 97.546875 L 80.203125 220.125 L 49.96875 219.46875 C 48.859375 219.46875 47.828125 219.984375 47.0625 220.78125 C 46.3125 221.59375 45.9375 222.703125 46 223.8125 C 46.0625 224.640625 46.171875 232.203125 46 284 L 46 286.109375 C 46 291.203125 47.8125 295.53125 51.375 298.984375 C 59.46875 306.796875 74.4375 307.3125 78.203125 307.3125 C 78.703125 307.3125 79 307.3125 79.0625 307.3125 L 191.9375 307.265625 C 194.15625 307.265625 195.9375 305.484375 195.9375 303.28125 C 195.9375 301.078125 194.046875 299.9375 191.828125 299.9375 L 78.890625 300.03125 C 74.671875 300.171875 62.53125 298.640625 56.9375 293.25 C 54.953125 291.328125 54 289 54 286.125 L 54 284.046875 C 54.125 248.03125 54.109375 233.453125 54.0625 227.4375 L 80.15625 227.234375 L 80.15625 265.171875 C 80.140625 265.453125 79.328125 272.015625 72.421875 275.109375 C 70.40625 276 69.5 278.359375 70.40625 280.375 C 71.0625 281.859375 72.53125 282.734375 74.0625 282.734375 C 74.609375 282.734375 75.15625 282.625 75.6875 282.375 C 87.21875 277.234375 87.796875 265.703125 87.8125 265.0625 L 87.796875 98 C 87.796875 89.734375 94.546875 79.609375 102.8125 79.609375 L 248.046875 79.625 C 248.140625 79.5625 261.21875 79.71875 268.1875 86.734375 C 270.5625 89.109375 272.078125 92.6875 272.59375 96.25 L 167.84375 96.5 C 165.640625 96.5 163.9375 97.53125 163.9375 99.75 C 163.9375 101.953125 165.734375 103.734375 167.9375 103.734375 L 264.453125 103.578125 L 264.453125 128 C 264.453125 130.203125 265.734375 131.671875 267.9375 131.671875 C 270.140625 131.671875 271.9375 129.890625 271.9375 127.6875 L 271.9375 103.5625 L 276.6875 103.5625 C 278.859375 103.5625 280.625 101.84375 280.6875 99.6875 C 280.90625 92.125 278.59375 85.859375 273.859375 81.09375 C 264.375 71.5625 248.515625 71.78125 247.9375 71.796875 Z M 161.9375 123.265625 C 138.78125 123.265625 119.9375 142.109375 119.9375 165.265625 C 119.9375 170.953125 121.09375 176.375 123.140625 181.328125 C 123.140625 181.34375 123.125 181.359375 123.109375 181.375 L 100.46875 212.09375 C 100.03125 212.703125 99.953125 213.5 100.296875 214.171875 C 100.625 214.84375 101.296875 215.265625 102.0625 215.28125 L 123.3125 215.5625 L 129.875 235.78125 C 130.109375 236.5 130.734375 237.03125 131.46875 237.140625 C 131.578125 237.15625 131.6875 237.171875 131.796875 237.171875 C 132.421875 237.171875 133.015625 236.875 133.390625 236.359375 L 155.25 206.6875 C 157.4375 207.046875 159.65625 207.28125 161.9375 207.28125 C 163.609375 207.28125 165.25 207.15625 166.875 206.953125 C 166.90625 207.015625 166.90625 207.078125 166.953125 207.125 L 188.484375 236.359375 C 188.859375 236.875 189.453125 237.171875 190.078125 237.171875 C 190.1875 237.171875 190.296875 237.15625 190.40625 237.125 C 191.140625 237.015625 191.75 236.5 192 235.78125 L 198.5625 215.5625 L 219.8125 215.265625 C 220.5625 215.265625 221.234375 214.84375 221.578125 214.171875 C 221.90625 213.5 221.84375 212.6875 221.390625 212.078125 L 199.96875 183 C 202.5 177.609375 203.9375 171.609375 203.9375 165.265625 C 203.9375 142.109375 185.109375 123.265625 161.9375 123.265625 Z M 161.9375 127.265625 C 182.890625 127.265625 199.9375 144.328125 199.9375 165.265625 C 199.9375 186.21875 182.890625 203.265625 161.9375 203.265625 C 141 203.265625 123.9375 186.234375 123.9375 165.265625 C 123.9375 144.328125 141 127.265625 161.9375 127.265625 Z M 160.9375 142.6875 C 160.171875 142.6875 159.484375 143.109375 159.140625 143.796875 L 153.125 155.984375 L 139.671875 157.9375 C 138.90625 158.046875 138.28125 158.578125 138.046875 159.3125 C 137.8125 160.03125 138.015625 160.828125 138.5625 161.359375 L 148.296875 170.859375 L 146 184.25 C 145.859375 185.015625 146.171875 185.78125 146.796875 186.21875 C 147.40625 186.671875 148.21875 186.734375 148.890625 186.375 L 160.9375 180.046875 L 172.984375 186.375 C 173.265625 186.515625 173.59375 186.609375 173.90625 186.609375 C 174.328125 186.609375 174.734375 186.46875 175.078125 186.21875 C 175.703125 185.78125 176.015625 185.015625 175.875 184.25 L 173.578125 170.859375 L 183.3125 161.359375 C 183.859375 160.828125 184.0625 160.03125 183.828125 159.3125 C 183.59375 158.578125 182.96875 158.0625 182.203125 157.9375 L 168.75 155.984375 L 162.734375 143.796875 C 162.390625 143.109375 161.703125 142.6875 160.9375 142.6875 Z M 301.9375 143.265625 C 296.828125 143.265625 251.9375 143.546875 251.9375 153.265625 L 251.9375 169.453125 C 251.9375 171.8125 254.5625 173.609375 258.578125 174.984375 C 255 176.203125 252.578125 177.765625 252.09375 179.75 C 252 179.96875 251.9375 180.21875 251.9375 180.46875 L 251.9375 196.640625 C 251.9375 199 254.5625 200.796875 258.578125 202.1875 C 255.015625 203.40625 252.625 204.953125 252.109375 206.921875 C 252.015625 207.15625 251.9375 207.40625 251.9375 207.6875 L 251.9375 223.859375 C 251.9375 226.21875 254.546875 228 258.5625 229.375 C 254.546875 230.75 251.9375 232.53125 251.9375 234.875 C 251.9375 235.03125 251.984375 235.203125 252.015625 235.359375 C 238.4375 235.65625 207.9375 237.265625 207.9375 245.265625 L 207.9375 261.453125 C 207.9375 263.484375 209.890625 265.09375 212.984375 266.375 C 209.875 267.671875 207.9375 269.265625 207.9375 271.265625 L 207.9375 287.453125 C 207.9375 289.484375 209.890625 291.09375 213 292.390625 C 209.90625 293.671875 207.9375 295.265625 207.9375 297.265625 L 207.9375 313.453125 C 207.9375 323.21875 252.828125 323.515625 257.9375 323.515625 C 262.6875 323.515625 301.5625 323.265625 307.234375 315.4375 C 320.4375 315.171875 351.9375 313.65625 351.9375 305.453125 L 351.9375 289.265625 C 351.9375 286.9375 349.328125 285.140625 345.3125 283.765625 C 349.3125 282.390625 351.9375 280.609375 351.9375 278.25 L 351.9375 262.078125 C 351.9375 261.8125 351.875 261.546875 351.78125 261.3125 C 351.265625 259.34375 348.84375 257.796875 345.265625 256.578125 C 349.296875 255.203125 351.9375 253.40625 351.9375 251.0625 L 351.9375 234.875 C 351.9375 232.53125 349.3125 230.765625 345.3125 229.390625 C 349.328125 228.015625 351.9375 226.21875 351.9375 223.859375 L 351.9375 207.6875 C 351.9375 205.34375 349.328125 203.5625 345.3125 202.1875 C 349.328125 200.8125 351.9375 199.015625 351.9375 196.65625 L 351.9375 180.484375 C 351.9375 178.140625 349.3125 176.359375 345.3125 174.984375 C 349.328125 173.609375 351.9375 171.8125 351.9375 169.453125 L 351.9375 153.265625 C 351.9375 143.546875 307.0625 143.265625 301.9375 143.265625 Z M 301.9375 147.265625 C 330.609375 147.265625 345.734375 151.125 347.8125 153.265625 C 345.734375 155.421875 330.609375 159.265625 301.9375 159.265625 C 273.28125 159.265625 258.140625 155.421875 256.0625 153.265625 C 258.140625 151.125 273.28125 147.265625 301.9375 147.265625 Z M 160.9375 149.1875 L 165.625 158.703125 C 165.90625 159.296875 166.46875 159.703125 167.125 159.796875 L 177.625 161.3125 L 170.03125 168.71875 C 169.5625 169.171875 169.34375 169.84375 169.453125 170.5 L 171.25 180.9375 L 161.875 176 C 161.28125 175.703125 160.59375 175.703125 160 176 L 150.625 180.9375 L 152.40625 170.5 C 152.515625 169.84375 152.296875 169.171875 151.828125 168.71875 L 144.25 161.3125 L 154.734375 159.796875 C 155.390625 159.703125 155.953125 159.296875 156.234375 158.703125 Z M 347.953125 157.703125 L 347.984375 169.25 C 346.8125 171.359375 331.65625 175.515625 301.9375 175.515625 C 272.234375 175.515625 257.078125 171.359375 255.9375 169.453125 L 255.9375 157.71875 C 267.046875 163.09375 297.765625 163.265625 301.9375 163.265625 C 306.125 163.265625 336.859375 163.09375 347.953125 157.703125 Z M 267 177.03125 C 280.546875 179.40625 298.796875 179.515625 301.9375 179.515625 C 305.09375 179.515625 323.3125 179.40625 336.859375 177.046875 C 343.1875 178.1875 346.875 179.5 347.8125 180.484375 C 345.75 182.625 330.609375 186.484375 301.9375 186.484375 C 273.28125 186.484375 258.15625 182.625 256.078125 180.484375 C 257.015625 179.5 260.6875 178.1875 267 177.03125 Z M 347.953125 184.90625 L 347.984375 196.4375 C 346.8125 198.5625 331.65625 202.703125 301.9375 202.703125 C 272.234375 202.703125 257.078125 198.5625 255.9375 196.65625 L 255.9375 184.921875 C 267.046875 190.28125 297.765625 190.484375 301.9375 190.484375 C 306.125 190.484375 336.859375 190.28125 347.953125 184.90625 Z M 125.109375 185.40625 C 127.4375 189.671875 130.53125 193.46875 134.140625 196.671875 L 123.171875 211.5625 L 106 211.328125 Z M 197.875 186.921875 L 215.875 211.328125 L 198.703125 211.5625 L 188.53125 197.75 C 192.234375 194.71875 195.390625 191.03125 197.875 186.921875 Z M 137.25 199.1875 C 141.328125 202.15625 145.953125 204.40625 150.953125 205.765625 L 132.484375 230.84375 L 126.8125 213.375 Z M 185.3125 200.140625 L 195.0625 213.375 L 189.390625 230.84375 L 171.234375 206.203125 C 176.34375 205.046875 181.109375 202.984375 185.3125 200.140625 Z M 336.890625 204.234375 C 343.21875 205.375 346.875 206.703125 347.8125 207.6875 C 345.75 209.828125 330.609375 213.6875 301.9375 213.6875 C 273.28125 213.6875 258.15625 209.828125 256.078125 207.6875 C 257.015625 206.703125 260.6875 205.390625 267.015625 204.234375 C 280.5625 206.609375 298.796875 206.703125 301.9375 206.703125 C 305.09375 206.703125 323.34375 206.59375 336.890625 204.234375 Z M 347.953125 212.109375 L 347.984375 223.640625 C 346.8125 225.765625 331.65625 229.921875 301.9375 229.921875 C 272.234375 229.921875 257.078125 225.765625 255.9375 223.859375 L 255.9375 212.125 C 267.046875 217.484375 297.765625 217.6875 301.9375 217.6875 C 306.125 217.6875 336.859375 217.484375 347.953125 212.109375 Z M 267 231.4375 C 280.546875 233.796875 298.796875 233.921875 301.9375 233.921875 C 305.09375 233.921875 323.34375 233.796875 336.875 231.4375 C 343.203125 232.59375 346.875 233.90625 347.8125 234.875 C 345.796875 236.984375 331.296875 240.671875 303.984375 240.859375 C 292.921875 235.46875 262.140625 235.265625 257.9375 235.265625 C 257.640625 235.265625 257.171875 235.28125 256.609375 235.28125 C 256.375 235.140625 256.1875 235 256.0625 234.875 C 257.015625 233.90625 260.671875 232.578125 267 231.4375 Z M 257.9375 239.265625 C 286.609375 239.265625 301.734375 243.125 303.8125 245.265625 C 301.734375 247.421875 286.609375 251.265625 257.9375 251.265625 C 229.28125 251.265625 214.140625 247.421875 212.0625 245.265625 C 214.140625 243.125 229.28125 239.265625 257.9375 239.265625 Z M 347.953125 239.296875 L 347.984375 250.84375 C 346.890625 252.8125 333.671875 256.515625 307.9375 257.046875 L 307.9375 245.28125 C 307.9375 245.125 307.90625 244.953125 307.875 244.796875 C 318.4375 244.546875 339.25 243.53125 347.953125 239.296875 Z M 303.953125 249.703125 L 303.984375 261.25 C 302.8125 263.359375 287.65625 267.5 257.9375 267.5 C 228.234375 267.5 213.078125 263.359375 211.9375 261.453125 L 211.9375 249.71875 C 223.046875 255.09375 253.765625 255.265625 257.9375 255.265625 C 262.125 255.265625 292.859375 255.09375 303.953125 249.703125 Z M 336.875 258.625 C 343.203125 259.78125 346.875 261.109375 347.8125 262.078125 C 345.84375 264.125 331.96875 267.6875 305.9375 268.03125 C 305.140625 267.4375 304.109375 266.875 302.90625 266.375 C 306 265.09375 307.9375 263.484375 307.9375 261.453125 L 307.9375 261.03125 C 315.203125 260.859375 327.203125 260.3125 336.875 258.625 Z M 347.953125 266.484375 L 347.984375 278.046875 C 346.890625 280.015625 333.65625 283.71875 307.9375 284.234375 L 307.9375 272 C 318.53125 271.75 339.28125 270.71875 347.953125 266.484375 Z M 219.9375 268.4375 C 233.625 271.375 254.546875 271.515625 257.9375 271.515625 C 261.34375 271.515625 282.25 271.390625 295.9375 268.4375 C 300.390625 269.4375 303.046875 270.46875 303.8125 271.28125 C 301.75 273.4375 286.609375 277.28125 257.9375 277.28125 C 229.28125 277.28125 214.15625 273.4375 212.078125 271.28125 C 212.84375 270.46875 215.484375 269.421875 219.9375 268.4375 Z M 303.953125 275.703125 L 303.984375 287.25 C 302.8125 289.359375 287.65625 293.5 257.9375 293.5 C 228.234375 293.5 213.078125 289.359375 211.9375 287.453125 L 211.9375 275.71875 C 223.046875 281.09375 253.765625 281.265625 257.9375 281.265625 C 262.125 281.265625 292.859375 281.09375 303.953125 275.703125 Z M 336.875 285.8125 C 343.234375 286.984375 346.875 288.296875 347.8125 289.265625 C 345.875 291.296875 332.421875 294.78125 307.171875 295.203125 C 306.34375 294.125 304.859375 293.1875 302.90625 292.375 C 305.59375 291.265625 307.40625 289.890625 307.828125 288.234375 C 315.078125 288.0625 327.15625 287.515625 336.875 285.8125 Z M 347.953125 293.6875 L 347.984375 305.25 C 346.890625 307.21875 333.671875 310.921875 307.9375 311.4375 L 307.9375 299.1875 C 318.546875 298.953125 339.28125 297.921875 347.953125 293.6875 Z M 219.953125 294.4375 C 233.640625 297.375 254.546875 297.515625 257.9375 297.515625 C 261.34375 297.515625 282.234375 297.390625 295.921875 294.4375 C 300.375 295.4375 303.03125 296.46875 303.8125 297.265625 C 301.734375 299.421875 286.609375 303.265625 257.9375 303.265625 C 229.28125 303.265625 214.140625 299.421875 212.0625 297.265625 C 212.84375 296.46875 215.5 295.421875 219.953125 294.4375 Z M 303.953125 301.703125 L 303.984375 313.25 C 302.8125 315.359375 287.65625 319.515625 257.9375 319.515625 C 228.234375 319.515625 213.078125 315.359375 211.9375 313.453125 L 211.9375 301.71875 C 223.046875 307.09375 253.765625 307.265625 257.9375 307.265625 C 262.125 307.265625 292.859375 307.09375 303.953125 301.703125 Z "/>
</g>
</svg>
