<?xml version="1.0" encoding="UTF-8"?>
<svg xmlns="http://www.w3.org/2000/svg" xmlns:xlink="http://www.w3.org/1999/xlink" width="512pt" height="512pt" viewBox="0 0 512 512" version="1.1">
<g id="surface1">
<path style=" stroke:none;fill-rule:nonzero;fill:#0E0101;fill-opacity:1;" d="M 312.21875 1 C 300 0.59375 287.59375 5.1875 277.59375 16 C 269.59375 24.8125 264 44 260.78125 62.40625 C 258.40625 52 254.40625 42.40625 249.59375 36.8125 C 234.40625 20 208 20.8125 192 36.8125 C 176 52.8125 176 78.40625 192 94.40625 C 192.8125 95.21875 193.59375 96 194.40625 96 L 56 96 C 42.40625 96 32 106.40625 32 120 L 32 168 C 32 174.40625 34.40625 180.78125 39.1875 184.78125 C 41.59375 187.1875 44.8125 189.59375 48 190.40625 L 48 424 C 48 437.59375 58.40625 448 72 448 L 456 448 C 469.59375 448 480 437.59375 480 424 L 480 190.40625 C 483.1875 189.59375 486.40625 187.1875 488.78125 184.78125 C 493.59375 180 496 174.40625 496 168 L 496 120 C 496 106.40625 485.59375 96 472 96 L 325.59375 96 C 333.59375 92.8125 340.78125 88.8125 345.59375 84 C 364 65.59375 364 34.40625 345.59375 16 C 336.40625 6.8125 324.40625 1.40625 312.21875 1 Z M 312.78125 16 C 321.59375 16 329.59375 19.1875 336 25.59375 C 348.8125 38.40625 348.8125 59.1875 336 72 C 327.1875 80.8125 295.1875 89.59375 272 93.59375 C 274.40625 68.78125 280 34.40625 289.59375 25.59375 C 296 19.1875 304 16 312.78125 16 Z M 220 40 C 226.40625 40 232.78125 42.40625 237.59375 47.1875 C 243.1875 52.8125 248 76 250.40625 96 L 236 96 C 221.59375 92.8125 207.21875 88 202.40625 82.40625 C 192.8125 72.8125 192.8125 56.8125 202.40625 47.1875 C 207.21875 42.40625 213.59375 40 220 40 Z M 56 112 L 256 112 L 256 176 L 56 176 C 53.59375 176 52 175.1875 50.40625 173.59375 C 48.8125 172 48 170.40625 48 168 L 48 120 C 48 115.1875 51.1875 112 56 112 Z M 272 112 L 472 112 C 476.8125 112 480 115.1875 480 120 L 480 168 C 480 170.40625 479.1875 172 477.59375 173.59375 C 476 175.1875 474.40625 176 472 176 L 360 176 C 355.1875 176 352 179.1875 352 184 C 352 188.8125 355.1875 192 360 192 L 464 192 L 464 424 C 464 428.8125 460.8125 432 456 432 L 72 432 C 67.1875 432 64 428.8125 64 424 L 64 192 L 256 192 L 256 359.21875 C 256 364 259.1875 368 264 368 C 268.8125 368 272 364.8125 272 359.21875 Z M 296 176 C 291.1875 176 288 179.1875 288 184 C 288 188.8125 291.1875 192 296 192 L 328 192 C 332.8125 192 336 188.8125 336 184 C 336 179.1875 332.8125 176 328 176 Z M 104 384 C 99.1875 384 96 387.1875 96 392 L 96 408 C 96 412.8125 99.1875 416 104 416 C 108.8125 416 112 412.8125 112 408 L 112 392 C 112 387.1875 108.8125 384 104 384 Z M 144 384 C 139.1875 384 136 387.1875 136 392 L 136 408 C 136 412.8125 139.1875 416 144 416 C 148.8125 416 152 412.8125 152 408 L 152 392 C 152 387.1875 148.8125 384 144 384 Z M 184 384 C 179.1875 384 176 387.1875 176 392 L 176 408 C 176 412.8125 179.1875 416 184 416 C 188.8125 416 192 412.8125 192 408 L 192 392 C 192 387.1875 188.8125 384 184 384 Z M 224 384 C 219.1875 384 216 387.1875 216 392 L 216 408 C 216 412.8125 219.1875 416 224 416 C 228.8125 416 232 412.8125 232 408 L 232 392 C 232 387.1875 228.8125 384 224 384 Z M 264 384 C 259.1875 384 256 387.1875 256 392 L 256 408 C 256 412.8125 259.1875 416 264 416 C 268.8125 416 272 412.8125 272 408 L 272 392 C 272 387.1875 268.8125 384 264 384 Z M 304 384 C 299.1875 384 296 387.1875 296 392 L 296 408 C 296 412.8125 299.1875 416 304 416 C 308.8125 416 312 412.8125 312 408 L 312 392 C 312 387.1875 308.8125 384 304 384 Z M 344 384 C 339.1875 384 336 387.1875 336 392 L 336 408 C 336 412.8125 339.1875 416 344 416 C 348.8125 416 352 412.8125 352 408 L 352 392 C 352 387.1875 348.8125 384 344 384 Z M 384 384 C 379.1875 384 376 387.1875 376 392 L 376 408 C 376 412.8125 379.1875 416 384 416 C 388.8125 416 392 412.8125 392 408 L 392 392 C 392 387.1875 388.8125 384 384 384 Z M 424 384 C 419.1875 384 416 387.1875 416 392 L 416 408 C 416 412.8125 419.1875 416 424 416 C 428.8125 416 432 412.8125 432 408 L 432 392 C 432 387.1875 428.8125 384 424 384 Z "/>
</g>
</svg>
