<?xml version="1.0" encoding="UTF-8"?>
<svg xmlns="http://www.w3.org/2000/svg" xmlns:xlink="http://www.w3.org/1999/xlink" width="480pt" height="480pt" viewBox="0 0 480 480" version="1.1">
<g id="surface1">
<path style=" stroke:none;fill-rule:nonzero;fill:#0E0101;fill-opacity:1;" d="M 156 60 C 119.625 60 90 89.625 90 126 C 90 162.375 119.625 192 156 192 C 192.375 192 222 162.375 222 126 C 222 89.625 192.375 60 156 60 Z M 156 72 C 185.882813 72 210 96.117188 210 126 C 210 155.882813 185.882813 180 156 180 C 126.117188 180 102 155.882813 102 126 C 102 96.117188 126.117188 72 156 72 Z M 300 96 C 286.804688 96 276 106.804688 276 120 C 276 124.382813 277.289063 128.460938 279.375 132 L 258 132 L 258 168 L 264 168 L 264 252 L 284.132813 252 L 249.679688 277.945313 L 206.648438 231.726563 C 193.5 214.898438 173.015625 204 150 204 C 110.296875 204 78 236.296875 78 276 L 78 420 L 90 420 L 90 276 C 90 242.789063 116.789063 216 150 216 C 169.40625 216 186.515625 225.210938 197.507813 239.460938 C 197.625 239.625 197.742188 239.765625 197.882813 239.90625 L 244.59375 290.0625 C 246.679688 292.3125 250.148438 292.617188 252.585938 290.789063 L 304.054688 252 L 369.539063 252 C 366.914063 258.679688 361.664063 264 354 264 L 327.9375 264 C 326.34375 264 324.820313 264.632813 323.695313 265.757813 L 258.726563 330.726563 C 255.46875 333.984375 251.015625 336 246 336 C 240.796875 336 236.179688 333.773438 232.875 330.210938 C 232.664063 330 232.453125 329.8125 232.242188 329.648438 L 223.710938 320.484375 L 223.3125 320.0625 L 220.40625 316.898438 C 218.71875 315.09375 216.09375 314.507813 213.796875 315.421875 C 211.5 316.3125 210 318.539063 210 321 L 210 420 L 222 420 L 222 336.257813 L 224.039063 338.4375 C 224.648438 339.09375 225.375 339.609375 226.21875 339.9375 C 231.492188 344.71875 238.289063 348 246 348 C 254.25 348 261.796875 344.625 267.210938 339.210938 L 330.421875 276 L 354 276 C 368.4375 276 380.578125 265.640625 383.390625 252 L 408 252 L 408 168 L 414 168 L 414 132 L 392.625 132 C 394.710938 128.460938 396 124.382813 396 120 C 396 106.804688 385.195313 96 372 96 C 365.507813 96 359.859375 99.070313 355.03125 102.9375 C 350.203125 106.804688 346.007813 111.65625 342.445313 116.414063 C 339.890625 119.789063 337.828125 123.023438 336 125.976563 C 334.171875 123.023438 332.109375 119.789063 329.554688 116.414063 C 325.992188 111.65625 321.796875 106.804688 316.96875 102.9375 C 312.140625 99.070313 306.492188 96 300 96 Z M 300 108 C 302.507813 108 305.859375 109.429688 309.46875 112.3125 C 313.078125 115.195313 316.757813 119.34375 319.945313 123.585938 C 323.085938 127.78125 323.320313 128.8125 325.195313 132 L 300 132 C 293.296875 132 288 126.703125 288 120 C 288 113.296875 293.296875 108 300 108 Z M 372 108 C 378.703125 108 384 113.296875 384 120 C 384 126.703125 378.703125 132 372 132 L 346.804688 132 C 348.679688 128.8125 348.914063 127.78125 352.054688 123.585938 C 355.242188 119.34375 358.921875 115.195313 362.53125 112.3125 C 366.140625 109.429688 369.492188 108 372 108 Z M 270 144 L 330 144 C 330 147.304688 332.695313 150 336 150 C 339.304688 150 342 147.304688 342 144 L 402 144 L 402 156 L 396 156 L 396 240 L 342 240 C 342 236.695313 339.304688 234 336 234 C 332.695313 234 330 236.695313 330 240 L 276 240 L 276 156 L 270 156 Z M 336 162 C 332.695313 162 330 164.695313 330 168 C 330 171.304688 332.695313 174 336 174 C 339.304688 174 342 171.304688 342 168 C 342 164.695313 339.304688 162 336 162 Z M 336 186 C 332.695313 186 330 188.695313 330 192 C 330 195.304688 332.695313 198 336 198 C 339.304688 198 342 195.304688 342 192 C 342 188.695313 339.304688 186 336 186 Z M 336 210 C 332.695313 210 330 212.695313 330 216 C 330 219.304688 332.695313 222 336 222 C 339.304688 222 342 219.304688 342 216 C 342 212.695313 339.304688 210 336 210 Z M 168 264.164063 L 163.476563 267.070313 L 163.101563 272.4375 L 164.25 274.21875 L 164.648438 274.664063 L 169.6875 276.539063 L 174.1875 273.609375 L 174.5625 268.242188 L 173.4375 266.460938 L 173.039063 266.039063 Z M 184.757813 282.164063 L 180.210938 285.070313 L 179.859375 290.4375 L 181.007813 292.21875 L 181.40625 292.664063 L 186.445313 294.539063 L 190.96875 291.632813 L 191.34375 286.242188 L 190.195313 284.460938 L 189.773438 284.039063 Z M 201.492188 300.164063 L 196.992188 303.09375 L 196.617188 308.4375 L 197.765625 310.21875 L 198.1875 310.664063 L 203.226563 312.539063 L 207.726563 309.632813 L 208.101563 304.242188 L 206.953125 302.484375 L 206.53125 302.039063 Z "/>
</g>
</svg>
