<svg xmlns="http://www.w3.org/2000/svg" xmlns:xlink="http://www.w3.org/1999/xlink" version="1.1" viewBox="0 0 60 60" xml:space="preserve" data-shift="x" data-animoptions="{'duration':'0.6', 'repeat':'1', 'repeatDelay':'0.2'}" preserveAspectRatio="xMinYMin meet" style="left: 0.5px; top: 0px;"><g data-svg-origin="30 30" style="transform: matrix(1, 0, 0, 1, 0, 0);">
				<circle transform="rotate(-90, 30, 30)" fill="#6c7a89" stroke="#6c7a89" stroke-width="2" stroke-linecap="square" stroke-miterlimit="10" cx="30" cy="30" r="23" style="stroke: rgb(108, 122, 137); fill: rgb(108, 122, 137);"/>
				<rect class="lievo-likestroke lievo-altstroke lievo-solidbg" x="29.95" y="42.95" fill="#ffffff" stroke="#ffffff" stroke-width="2" stroke-linecap="square" stroke-miterlimit="10" width="0.1" height="0.1" style="stroke: rgb(255, 255, 255); fill: rgb(255, 255, 255);"/>
				<path class="lievo-altstroke lievo-solidbg" fill="none" stroke="#ffffff" stroke-width="2" stroke-linecap="square" stroke-miterlimit="10" d="M30,37v-1.71c0.07-1.13,0.4-2.11,1.71-3.43C33.43,30.14,36,27.57,36,25c0-3.79-2.57-6-6-6c-3.43,0-6,2.5-6,5.92L24,25" style="stroke: rgb(255, 255, 255);"/>
				<g opacity="0" data-svg-origin="30 31.024999618530273" style="opacity: 0; transform: matrix(1.62, 0, 0, 1.62, -18.6, -19.2355); transform-origin: 0px 0px 0px;">
					<rect class="lievo-likestroke lievo-altstroke lievo-solidbg" x="29.95" y="42.95" fill="#ffffff" stroke="#ffffff" stroke-width="2" stroke-linecap="square" stroke-miterlimit="10" width="0.1" height="0.1" style="stroke: rgb(255, 255, 255); fill: rgb(255, 255, 255);"/>
					<path class="lievo-altstroke lievo-solidbg" fill="none" stroke="#ffffff" stroke-width="2" stroke-linecap="square" stroke-miterlimit="10" d="M30,37v-1.71c0.07-1.13,0.4-2.11,1.71-3.43C33.43,30.14,36,27.57,36,25c0-3.79-2.57-6-6-6c-3.43,0-6,2.5-6,5.92L24,25" style="stroke: rgb(255, 255, 255);"/>
				</g>
			</g>
	
</svg>
