<?xml version="1.0" encoding="UTF-8"?>
<svg xmlns="http://www.w3.org/2000/svg" xmlns:xlink="http://www.w3.org/1999/xlink" width="512pt" height="512pt" viewBox="0 0 512 512" version="1.1">
<g id="surface1">
<path style=" stroke:none;fill-rule:nonzero;fill:#0E0101;fill-opacity:1;" d="M 248 16 C 212.71875 16 184 44.71875 184 80 C 184 115.28125 212.71875 144 248 144 C 283.28125 144 312 115.28125 312 80 C 312 44.71875 283.28125 16 248 16 Z M 248 32 C 274.46875 32 296 53.53125 296 80 C 296 106.46875 274.46875 128 248 128 C 221.53125 128 200 106.46875 200 80 C 200 53.53125 221.53125 32 248 32 Z M 152 160 C 138.78125 160 128 170.78125 128 184 L 128 225.875 C 128 237.96875 137.0625 248.1875 149.03125 249.6875 L 192 255.0625 L 192 400.9375 L 149.03125 406.3125 C 137.0625 407.8125 128 418.03125 128 430.125 L 128 472 C 128 485.21875 138.78125 496 152 496 L 360 496 C 373.21875 496 384 485.21875 384 472 L 384 430.125 C 384 418.03125 374.9375 407.8125 362.96875 406.3125 L 320 400.9375 L 320 184 C 320 170.78125 309.21875 160 296 160 Z M 152 176 L 296 176 C 300.40625 176 304 179.59375 304 184 L 304 408 C 304 412.03125 307 415.4375 311 415.9375 L 361 422.1875 C 365 422.6875 368 426.09375 368 430.125 L 368 472 C 368 476.40625 364.40625 480 360 480 L 152 480 C 147.59375 480 144 476.40625 144 472 L 144 430.125 C 144 426.09375 147 422.6875 151 422.1875 L 201 415.9375 C 205 415.4375 208 412.03125 208 408 L 208 248 C 208 243.96875 205 240.5625 201 240.0625 L 151 233.8125 C 147 233.3125 144 229.90625 144 225.875 L 144 184 C 144 179.59375 147.59375 176 152 176 Z M 176 432 C 171.59375 432 168 435.59375 168 440 L 168 456 C 168 460.40625 171.59375 464 176 464 C 180.40625 464 184 460.40625 184 456 L 184 440 C 184 435.59375 180.40625 432 176 432 Z M 216 432 C 211.59375 432 208 435.59375 208 440 L 208 456 C 208 460.40625 211.59375 464 216 464 C 220.40625 464 224 460.40625 224 456 L 224 440 C 224 435.59375 220.40625 432 216 432 Z M 256 432 C 251.59375 432 248 435.59375 248 440 L 248 456 C 248 460.40625 251.59375 464 256 464 C 260.40625 464 264 460.40625 264 456 L 264 440 C 264 435.59375 260.40625 432 256 432 Z M 296 432 C 291.59375 432 288 435.59375 288 440 L 288 456 C 288 460.40625 291.59375 464 296 464 C 300.40625 464 304 460.40625 304 456 L 304 440 C 304 435.59375 300.40625 432 296 432 Z M 336 432 C 331.59375 432 328 435.59375 328 440 L 328 456 C 328 460.40625 331.59375 464 336 464 C 340.40625 464 344 460.40625 344 456 L 344 440 C 344 435.59375 340.40625 432 336 432 Z "/>
</g>
</svg>
