<?xml version="1.0" encoding="UTF-8"?>
<svg xmlns="http://www.w3.org/2000/svg" xmlns:xlink="http://www.w3.org/1999/xlink" width="480pt" height="480pt" viewBox="0 0 480 480" version="1.1">
<g id="surface1">
<path style=" stroke:none;fill-rule:nonzero;fill:#0E0101;fill-opacity:1;" d="M 78.1875 59.90625 C 77.976563 59.90625 77.789063 59.90625 77.601563 59.929688 C 75.585938 60.046875 73.757813 61.171875 72.75 62.929688 C 71.742188 64.664063 71.695313 66.796875 72.585938 68.601563 L 142.5 214.265625 C 124.710938 235.992188 114 263.765625 114 294 C 114 363.515625 170.484375 420 240 420 C 309.515625 420 366 363.515625 366 294 C 366 263.765625 355.289063 235.992188 337.5 214.265625 L 407.414063 68.601563 C 408.328125 66.773438 408.234375 64.59375 407.203125 62.859375 C 406.148438 61.101563 404.273438 60 402.234375 59.929688 C 399.820313 59.835938 397.59375 61.21875 396.585938 63.398438 L 328.78125 204.65625 C 306 182.015625 274.617188 168 240 168 C 235.804688 168 231.65625 168.210938 227.578125 168.632813 L 275.414063 68.601563 C 276.328125 66.75 276.234375 64.59375 275.179688 62.835938 C 274.125 61.101563 272.273438 60 270.210938 59.929688 C 267.820313 59.859375 265.59375 61.21875 264.585938 63.398438 L 240 114.820313 L 215.414063 63.398438 C 214.476563 61.359375 212.460938 60 210.1875 59.90625 C 210 59.90625 209.789063 59.90625 209.601563 59.929688 C 207.585938 60.046875 205.78125 61.171875 204.773438 62.90625 C 203.765625 64.664063 203.695313 66.796875 204.585938 68.601563 L 233.34375 128.71875 L 223.757813 148.804688 L 223.734375 148.804688 L 218.554688 150.257813 L 216.609375 155.25 L 217.171875 157.3125 L 217.429688 157.851563 L 218.882813 158.976563 L 213.1875 170.90625 C 189.304688 176.109375 167.929688 188.039063 151.21875 204.65625 L 83.414063 63.398438 C 82.476563 61.335938 80.4375 60 78.1875 59.90625 Z M 372.9375 60.070313 L 367.804688 61.6875 L 366.585938 63.398438 L 366.328125 63.9375 L 366.421875 69.328125 L 370.78125 72.46875 L 375.914063 70.851563 L 377.15625 69.117188 L 377.414063 68.601563 L 377.320313 63.210938 Z M 300.960938 60.09375 L 295.828125 61.6875 L 294.585938 63.398438 L 294.328125 63.9375 L 294.421875 69.304688 L 298.78125 72.46875 L 303.914063 70.851563 L 305.15625 69.140625 L 305.414063 68.601563 L 305.320313 63.210938 Z M 109.171875 60.117188 L 103.96875 61.546875 L 102.023438 66.5625 L 102.585938 68.601563 L 102.84375 69.117188 L 107.085938 72.421875 L 112.289063 70.992188 L 114.234375 66 L 113.671875 63.9375 L 113.414063 63.398438 Z M 181.148438 60.117188 L 175.96875 61.546875 L 174.023438 66.5625 L 174.585938 68.601563 L 174.84375 69.140625 L 179.085938 72.445313 L 184.289063 70.992188 L 186.234375 65.976563 L 185.671875 63.9375 L 185.414063 63.398438 Z M 290.320313 82.242188 L 285.1875 83.882813 L 283.945313 85.59375 L 283.6875 86.132813 L 283.78125 91.5 L 288.140625 94.640625 L 293.25 93.023438 L 294.492188 91.3125 L 294.75 90.773438 L 294.65625 85.40625 Z M 362.34375 82.265625 L 357.210938 83.882813 L 355.96875 85.59375 L 355.710938 86.15625 L 355.804688 91.523438 L 360.1875 94.664063 L 365.320313 93.023438 L 366.539063 91.3125 L 366.796875 90.773438 L 366.703125 85.40625 Z M 191.8125 82.289063 L 186.632813 83.71875 L 184.6875 88.734375 L 185.25 90.773438 L 185.507813 91.3125 L 189.75 94.59375 L 194.929688 93.164063 L 196.875 88.148438 L 196.3125 86.132813 L 196.054688 85.59375 Z M 119.789063 82.3125 L 114.585938 83.71875 L 112.640625 88.757813 L 113.203125 90.773438 L 113.460938 91.3125 L 117.703125 94.617188 L 122.90625 93.1875 L 124.851563 88.195313 L 124.289063 86.15625 L 124.03125 85.59375 Z M 279.65625 104.4375 L 274.523438 106.03125 L 273.304688 107.742188 L 273.023438 108.304688 L 273.117188 113.671875 L 277.5 116.8125 L 282.632813 115.21875 L 283.875 113.507813 L 284.132813 112.945313 L 284.039063 107.578125 Z M 351.726563 104.460938 L 346.59375 106.078125 L 345.375 107.8125 L 345.09375 108.351563 L 345.1875 113.71875 L 349.570313 116.835938 L 354.679688 115.21875 L 355.921875 113.53125 L 356.179688 112.96875 L 356.085938 107.601563 Z M 202.453125 104.460938 L 197.273438 105.914063 L 195.304688 110.90625 L 195.867188 112.945313 L 196.125 113.507813 L 200.390625 116.789063 L 205.570313 115.335938 L 207.539063 110.34375 L 206.976563 108.28125 L 206.695313 107.742188 Z M 130.40625 104.507813 L 125.226563 105.9375 L 123.257813 110.929688 L 123.820313 112.96875 L 124.078125 113.53125 L 128.320313 116.8125 L 133.5 115.382813 L 135.46875 110.367188 L 134.90625 108.351563 L 134.625 107.8125 Z M 269.015625 126.609375 L 263.90625 128.226563 L 262.664063 129.9375 L 262.40625 130.476563 L 262.5 135.84375 L 266.835938 139.007813 L 271.96875 137.390625 L 273.210938 135.65625 L 273.46875 135.117188 L 273.375 129.75 Z M 213.09375 126.65625 L 207.914063 128.085938 L 205.96875 133.101563 L 206.53125 135.117188 L 206.789063 135.65625 L 211.03125 138.960938 L 216.210938 137.53125 L 218.15625 132.515625 L 217.59375 130.476563 L 217.335938 129.9375 Z M 341.109375 126.65625 L 335.976563 128.273438 L 334.757813 129.984375 L 334.5 130.523438 L 334.59375 135.914063 L 338.953125 139.03125 L 344.0625 137.4375 L 345.304688 135.703125 L 345.5625 135.164063 L 345.46875 129.773438 Z M 141 126.679688 L 135.820313 128.132813 L 133.875 133.125 L 134.4375 135.164063 L 134.695313 135.703125 L 138.9375 139.007813 L 144.117188 137.578125 L 146.0625 132.5625 L 145.5 130.523438 L 145.242188 129.984375 Z M 258.375 148.78125 L 253.242188 150.398438 L 252 152.109375 L 251.742188 152.648438 L 251.835938 158.039063 L 256.21875 161.15625 L 261.328125 159.5625 L 262.570313 157.851563 L 262.828125 157.3125 L 262.734375 151.945313 Z M 330.492188 148.851563 L 325.382813 150.46875 L 324.117188 152.179688 L 323.882813 152.71875 L 323.976563 158.085938 L 328.335938 161.25 L 333.46875 159.632813 L 334.6875 157.898438 L 334.96875 157.359375 L 334.875 151.96875 Z M 151.617188 148.875 L 146.4375 150.304688 L 144.46875 155.320313 L 145.03125 157.359375 L 145.3125 157.898438 L 149.554688 161.179688 L 154.734375 159.773438 L 156.679688 154.757813 L 156.117188 152.71875 L 155.882813 152.179688 Z M 319.875 171.023438 L 314.742188 172.664063 L 313.5 174.375 L 313.242188 174.914063 L 313.359375 180.28125 L 317.71875 183.445313 L 322.851563 181.804688 L 324.09375 180.09375 L 324.351563 179.554688 L 324.257813 174.1875 Z M 162.234375 171.09375 L 157.054688 172.5 L 155.085938 177.515625 L 155.648438 179.554688 L 155.90625 180.09375 L 160.148438 183.375 L 165.351563 181.96875 L 167.320313 176.953125 L 166.757813 174.914063 L 166.5 174.375 Z M 240 180 C 303.023438 180 354 230.976563 354 294 C 354 357.023438 303.023438 408 240 408 C 176.976563 408 126 357.023438 126 294 C 126 230.976563 176.976563 180 240 180 Z M 240 198 C 236.695313 198 234 200.695313 234 204 C 234 207.304688 236.695313 210 240 210 C 243.304688 210 246 207.304688 246 204 C 246 200.695313 243.304688 198 240 198 Z M 216.9375 201.070313 C 216.328125 201.046875 215.742188 201.117188 215.15625 201.28125 C 213.609375 201.679688 212.296875 202.6875 211.5 204.070313 C 210.703125 205.429688 210.492188 207.070313 210.914063 208.617188 C 211.3125 210.164063 212.320313 211.476563 213.703125 212.273438 C 215.085938 213.070313 216.726563 213.28125 218.25 212.882813 C 219.796875 212.460938 221.109375 211.453125 221.90625 210.070313 C 222.703125 208.6875 222.914063 207.046875 222.492188 205.5 C 221.8125 202.96875 219.5625 201.164063 216.9375 201.070313 Z M 263.25 201.09375 C 260.554688 201.09375 258.1875 202.921875 257.507813 205.523438 C 256.640625 208.734375 258.539063 212.015625 261.75 212.882813 C 264.9375 213.726563 268.21875 211.828125 269.085938 208.617188 C 269.953125 205.429688 268.054688 202.148438 264.84375 201.28125 C 264.328125 201.140625 263.789063 201.070313 263.25 201.09375 Z M 194.859375 210.070313 C 193.851563 210.070313 192.867188 210.351563 192 210.84375 C 190.617188 211.640625 189.609375 212.953125 189.1875 214.5 C 188.789063 216.046875 189 217.6875 189.796875 219.070313 C 190.59375 220.429688 191.90625 221.4375 193.453125 221.859375 C 194.976563 222.257813 196.617188 222.046875 198 221.25 C 200.859375 219.585938 201.84375 215.929688 200.179688 213.070313 C 199.101563 211.148438 197.0625 210 194.859375 210.070313 Z M 284.71875 210.070313 C 282.679688 210.164063 280.828125 211.289063 279.796875 213.070313 C 279 214.429688 278.789063 216.070313 279.1875 217.617188 C 279.609375 219.164063 280.617188 220.476563 282 221.25 C 284.859375 222.914063 288.539063 221.929688 290.179688 219.070313 C 291.84375 216.1875 290.859375 212.53125 288 210.867188 C 286.992188 210.28125 285.867188 210.023438 284.71875 210.070313 Z M 176.4375 224.34375 C 174.820313 224.34375 173.25 224.976563 172.125 226.125 C 169.78125 228.445313 169.78125 232.265625 172.125 234.585938 C 174.445313 236.929688 178.265625 236.929688 180.585938 234.585938 C 182.929688 232.265625 182.929688 228.445313 180.585938 226.125 C 179.484375 225 178.007813 224.367188 176.4375 224.34375 Z M 303.726563 224.34375 C 302.109375 224.320313 300.539063 224.953125 299.390625 226.125 C 297.046875 228.445313 297.046875 232.265625 299.390625 234.585938 C 301.734375 236.929688 305.53125 236.929688 307.875 234.585938 C 310.21875 232.265625 310.21875 228.445313 307.875 226.125 C 306.773438 225 305.296875 224.390625 303.726563 224.34375 Z M 317.789063 243 C 316.78125 243.023438 315.796875 243.304688 314.929688 243.796875 C 313.546875 244.59375 312.539063 245.90625 312.140625 247.453125 C 311.71875 248.976563 311.929688 250.617188 312.75 252 C 314.390625 254.859375 318.070313 255.84375 320.929688 254.179688 C 323.789063 252.539063 324.796875 248.859375 323.132813 246 C 322.03125 244.101563 319.992188 242.953125 317.789063 243 Z M 161.789063 243 C 159.726563 243.09375 157.875 244.21875 156.84375 246 C 156.046875 247.382813 155.835938 249.023438 156.257813 250.546875 C 156.679688 252.09375 157.6875 253.40625 159.070313 254.203125 C 161.929688 255.867188 165.585938 254.859375 167.25 252 C 168.914063 249.140625 167.929688 245.460938 165.070313 243.820313 C 164.0625 243.234375 162.914063 242.953125 161.789063 243 Z M 232.054688 253.6875 L 212.71875 266.859375 L 212.71875 283.523438 L 231.070313 271.125 L 232.054688 271.125 L 232.054688 329.789063 L 251.414063 329.789063 L 251.414063 253.6875 Z M 153 264.726563 C 150.328125 264.726563 147.960938 266.554688 147.28125 269.15625 C 146.414063 272.367188 148.3125 275.648438 151.5 276.492188 C 154.710938 277.359375 157.992188 275.460938 158.859375 272.25 C 159.726563 269.0625 157.828125 265.78125 154.617188 264.914063 C 154.101563 264.773438 153.5625 264.703125 153 264.726563 Z M 327.164063 264.726563 C 326.554688 264.703125 325.96875 264.75 325.382813 264.914063 C 322.171875 265.78125 320.273438 269.0625 321.140625 272.25 C 321.539063 273.796875 322.546875 275.109375 323.929688 275.90625 C 325.3125 276.703125 326.953125 276.9375 328.5 276.515625 C 330.023438 276.09375 331.335938 275.085938 332.132813 273.726563 C 332.929688 272.34375 333.140625 270.703125 332.71875 269.15625 C 332.039063 266.625 329.789063 264.820313 327.164063 264.726563 Z M 150 288 C 146.695313 288 144 290.695313 144 294 C 144 297.304688 146.695313 300 150 300 C 153.304688 300 156 297.304688 156 294 C 156 290.695313 153.304688 288 150 288 Z M 330 288 C 326.695313 288 324 290.695313 324 294 C 324 297.304688 326.695313 300 330 300 C 333.304688 300 336 297.304688 336 294 C 336 290.695313 333.304688 288 330 288 Z M 153.28125 311.296875 C 152.695313 311.273438 152.085938 311.34375 151.5 311.507813 C 148.3125 312.351563 146.414063 315.632813 147.28125 318.84375 C 148.125 322.054688 151.40625 323.953125 154.617188 323.085938 C 157.828125 322.21875 159.726563 318.9375 158.859375 315.75 C 158.179688 313.195313 155.929688 311.390625 153.28125 311.296875 Z M 326.882813 311.320313 C 324.1875 311.320313 321.820313 313.148438 321.117188 315.75 C 320.273438 318.960938 322.171875 322.242188 325.382813 323.085938 C 328.570313 323.953125 331.851563 322.054688 332.71875 318.84375 C 333.585938 315.65625 331.6875 312.375 328.476563 311.507813 C 327.960938 311.367188 327.421875 311.296875 326.882813 311.320313 Z M 161.90625 333 C 160.921875 333.023438 159.9375 333.28125 159.070313 333.796875 C 156.1875 335.460938 155.203125 339.117188 156.867188 342 C 158.53125 344.859375 162.1875 345.84375 165.070313 344.179688 C 166.429688 343.40625 167.4375 342.09375 167.859375 340.546875 C 168.257813 339 168.046875 337.359375 167.25 336 C 166.148438 334.078125 164.109375 332.929688 161.90625 333 Z M 317.648438 333 C 315.609375 333.117188 313.757813 334.242188 312.75 336 C 311.085938 338.882813 312.070313 342.539063 314.929688 344.203125 C 317.789063 345.867188 321.46875 344.882813 323.132813 342 C 323.929688 340.640625 324.140625 339 323.71875 337.453125 C 323.320313 335.90625 322.3125 334.59375 320.929688 333.820313 C 319.945313 333.234375 318.796875 332.953125 317.648438 333 Z M 303.726563 351.632813 C 302.109375 351.609375 300.539063 352.242188 299.414063 353.390625 C 297.070313 355.734375 297.070313 359.53125 299.414063 361.875 C 301.734375 364.21875 305.554688 364.21875 307.875 361.875 C 310.21875 359.53125 310.21875 355.734375 307.875 353.390625 C 306.773438 352.289063 305.296875 351.65625 303.726563 351.632813 Z M 176.4375 351.65625 C 174.820313 351.609375 173.25 352.242188 172.125 353.414063 C 169.78125 355.734375 169.78125 359.554688 172.125 361.875 C 174.445313 364.21875 178.265625 364.21875 180.585938 361.875 C 182.929688 359.554688 182.929688 355.734375 180.585938 353.414063 C 179.484375 352.289063 178.007813 351.679688 176.4375 351.65625 Z M 284.835938 365.929688 C 283.851563 365.953125 282.867188 366.234375 282 366.75 C 279.117188 368.390625 278.132813 372.070313 279.796875 374.929688 C 281.460938 377.789063 285.117188 378.773438 288 377.132813 C 290.859375 375.46875 291.84375 371.789063 290.179688 368.929688 C 289.101563 367.03125 287.039063 365.882813 284.835938 365.929688 Z M 194.71875 365.953125 C 192.679688 366.046875 190.828125 367.171875 189.796875 368.929688 C 189 370.3125 188.789063 371.953125 189.1875 373.5 C 189.609375 375.046875 190.617188 376.359375 192 377.15625 C 193.359375 377.953125 195 378.164063 196.546875 377.742188 C 198.09375 377.320313 199.40625 376.3125 200.179688 374.929688 C 201.84375 372.070313 200.859375 368.414063 198 366.75 C 196.992188 366.164063 195.84375 365.90625 194.71875 365.953125 Z M 216.65625 374.929688 C 213.960938 374.953125 211.59375 376.78125 210.914063 379.382813 C 210.046875 382.59375 211.945313 385.875 215.15625 386.71875 C 218.34375 387.585938 221.625 385.6875 222.492188 382.5 C 223.359375 379.289063 221.460938 376.007813 218.25 375.140625 C 217.734375 375 217.195313 374.929688 216.65625 374.929688 Z M 263.53125 374.929688 C 262.921875 374.929688 262.3125 374.976563 261.75 375.140625 C 258.539063 376.007813 256.640625 379.289063 257.507813 382.5 C 257.90625 384.023438 258.914063 385.335938 260.296875 386.132813 C 261.65625 386.929688 263.296875 387.164063 264.84375 386.742188 C 266.390625 386.320313 267.703125 385.3125 268.5 383.953125 C 269.296875 382.570313 269.507813 380.929688 269.085938 379.382813 C 268.40625 376.851563 266.15625 375.046875 263.53125 374.929688 Z M 240 378 C 236.695313 378 234 380.695313 234 384 C 234 387.304688 236.695313 390 240 390 C 243.304688 390 246 387.304688 246 384 C 246 380.695313 243.304688 378 240 378 Z "/>
</g>
</svg>
