<?xml version="1.0" encoding="UTF-8"?>
<svg xmlns="http://www.w3.org/2000/svg" xmlns:xlink="http://www.w3.org/1999/xlink" width="480pt" height="480pt" viewBox="0 0 480 480" version="1.1">
<g id="surface1">
<path style=" stroke:none;fill-rule:nonzero;fill:#0E0101;fill-opacity:1;" d="M 249.515625 54 L 62.789063 240.726563 C 51.117188 252.398438 51.117188 271.476563 62.789063 283.148438 L 196.851563 417.210938 C 208.523438 428.882813 227.601563 428.882813 239.273438 417.210938 L 426 230.484375 L 426 108 C 426 78.257813 401.742188 54 372 54 Z M 254.484375 66 L 372 66 C 395.273438 66 414 84.726563 414 108 L 414 225.515625 L 230.789063 408.726563 C 223.710938 415.804688 212.414063 415.804688 205.335938 408.726563 L 71.273438 274.664063 C 64.195313 267.585938 64.195313 256.289063 71.273438 249.210938 Z M 282 84 C 278.695313 84 276 86.695313 276 90 C 276 93.304688 278.695313 96 282 96 C 285.304688 96 288 93.304688 288 90 C 288 86.695313 285.304688 84 282 84 Z M 306 84 C 302.695313 84 300 86.695313 300 90 C 300 93.304688 302.695313 96 306 96 C 309.304688 96 312 93.304688 312 90 C 312 86.695313 309.304688 84 306 84 Z M 330 84 C 326.695313 84 324 86.695313 324 90 C 324 93.304688 326.695313 96 330 96 C 333.304688 96 336 93.304688 336 90 C 336 86.695313 333.304688 84 330 84 Z M 258 90 C 254.695313 90 252 92.695313 252 96 C 252 99.304688 254.695313 102 258 102 C 261.304688 102 264 99.304688 264 96 C 264 92.695313 261.304688 90 258 90 Z M 366 90 C 352.804688 90 342 100.804688 342 114 C 342 127.195313 352.804688 138 366 138 C 379.195313 138 390 127.195313 390 114 C 390 100.804688 379.195313 90 366 90 Z M 366 102 C 372.703125 102 378 107.296875 378 114 C 378 120.703125 372.703125 126 366 126 C 359.296875 126 354 120.703125 354 114 C 354 107.296875 359.296875 102 366 102 Z M 240 108 C 236.695313 108 234 110.695313 234 114 C 234 117.304688 236.695313 120 240 120 C 243.304688 120 246 117.304688 246 114 C 246 110.695313 243.304688 108 240 108 Z M 222 126 C 218.695313 126 216 128.695313 216 132 C 216 135.304688 218.695313 138 222 138 C 225.304688 138 228 135.304688 228 132 C 228 128.695313 225.304688 126 222 126 Z M 204 144 C 200.695313 144 198 146.695313 198 150 C 198 153.304688 200.695313 156 204 156 C 207.304688 156 210 153.304688 210 150 C 210 146.695313 207.304688 144 204 144 Z M 390 144 C 386.695313 144 384 146.695313 384 150 C 384 153.304688 386.695313 156 390 156 C 393.304688 156 396 153.304688 396 150 C 396 146.695313 393.304688 144 390 144 Z M 186 162 C 182.695313 162 180 164.695313 180 168 C 180 171.304688 182.695313 174 186 174 C 189.304688 174 192 171.304688 192 168 C 192 164.695313 189.304688 162 186 162 Z M 390 168 C 386.695313 168 384 170.695313 384 174 C 384 177.304688 386.695313 180 390 180 C 393.304688 180 396 177.304688 396 174 C 396 170.695313 393.304688 168 390 168 Z M 168 180 C 164.695313 180 162 182.695313 162 186 C 162 189.304688 164.695313 192 168 192 C 171.304688 192 174 189.304688 174 186 C 174 182.695313 171.304688 180 168 180 Z M 390 192 C 386.695313 192 384 194.695313 384 198 C 384 201.304688 386.695313 204 390 204 C 393.304688 204 396 201.304688 396 198 C 396 194.695313 393.304688 192 390 192 Z M 150 198 C 146.695313 198 144 200.695313 144 204 C 144 207.304688 146.695313 210 150 210 C 153.304688 210 156 207.304688 156 204 C 156 200.695313 153.304688 198 150 198 Z M 132 216 C 128.695313 216 126 218.695313 126 222 C 126 225.304688 128.695313 228 132 228 C 135.304688 228 138 225.304688 138 222 C 138 218.695313 135.304688 216 132 216 Z M 384 216 C 380.695313 216 378 218.695313 378 222 C 378 225.304688 380.695313 228 384 228 C 387.304688 228 390 225.304688 390 222 C 390 218.695313 387.304688 216 384 216 Z M 114 234 C 110.695313 234 108 236.695313 108 240 C 108 243.304688 110.695313 246 114 246 C 117.304688 246 120 243.304688 120 240 C 120 236.695313 117.304688 234 114 234 Z M 366 234 C 362.695313 234 360 236.695313 360 240 C 360 243.304688 362.695313 246 366 246 C 369.304688 246 372 243.304688 372 240 C 372 236.695313 369.304688 234 366 234 Z M 96 252 C 92.695313 252 90 254.695313 90 258 C 90 261.304688 92.695313 264 96 264 C 99.304688 264 102 261.304688 102 258 C 102 254.695313 99.304688 252 96 252 Z M 348 252 C 344.695313 252 342 254.695313 342 258 C 342 261.304688 344.695313 264 348 264 C 351.304688 264 354 261.304688 354 258 C 354 254.695313 351.304688 252 348 252 Z M 114 270 C 110.695313 270 108 272.695313 108 276 C 108 279.304688 110.695313 282 114 282 C 117.304688 282 120 279.304688 120 276 C 120 272.695313 117.304688 270 114 270 Z M 330 270 C 326.695313 270 324 272.695313 324 276 C 324 279.304688 326.695313 282 330 282 C 333.304688 282 336 279.304688 336 276 C 336 272.695313 333.304688 270 330 270 Z M 132 288 C 128.695313 288 126 290.695313 126 294 C 126 297.304688 128.695313 300 132 300 C 135.304688 300 138 297.304688 138 294 C 138 290.695313 135.304688 288 132 288 Z M 312 288 C 308.695313 288 306 290.695313 306 294 C 306 297.304688 308.695313 300 312 300 C 315.304688 300 318 297.304688 318 294 C 318 290.695313 315.304688 288 312 288 Z M 150 306 C 146.695313 306 144 308.695313 144 312 C 144 315.304688 146.695313 318 150 318 C 153.304688 318 156 315.304688 156 312 C 156 308.695313 153.304688 306 150 306 Z M 294 306 C 290.695313 306 288 308.695313 288 312 C 288 315.304688 290.695313 318 294 318 C 297.304688 318 300 315.304688 300 312 C 300 308.695313 297.304688 306 294 306 Z M 168 324 C 164.695313 324 162 326.695313 162 330 C 162 333.304688 164.695313 336 168 336 C 171.304688 336 174 333.304688 174 330 C 174 326.695313 171.304688 324 168 324 Z M 276 324 C 272.695313 324 270 326.695313 270 330 C 270 333.304688 272.695313 336 276 336 C 279.304688 336 282 333.304688 282 330 C 282 326.695313 279.304688 324 276 324 Z M 186 342 C 182.695313 342 180 344.695313 180 348 C 180 351.304688 182.695313 354 186 354 C 189.304688 354 192 351.304688 192 348 C 192 344.695313 189.304688 342 186 342 Z M 258 342 C 254.695313 342 252 344.695313 252 348 C 252 351.304688 254.695313 354 258 354 C 261.304688 354 264 351.304688 264 348 C 264 344.695313 261.304688 342 258 342 Z M 204 360 C 200.695313 360 198 362.695313 198 366 C 198 369.304688 200.695313 372 204 372 C 207.304688 372 210 369.304688 210 366 C 210 362.695313 207.304688 360 204 360 Z M 240 360 C 236.695313 360 234 362.695313 234 366 C 234 369.304688 236.695313 372 240 372 C 243.304688 372 246 369.304688 246 366 C 246 362.695313 243.304688 360 240 360 Z M 222 378 C 218.695313 378 216 380.695313 216 384 C 216 387.304688 218.695313 390 222 390 C 225.304688 390 228 387.304688 228 384 C 228 380.695313 225.304688 378 222 378 Z "/>
</g>
</svg>
