<?xml version="1.0" encoding="UTF-8"?>
<svg xmlns="http://www.w3.org/2000/svg" xmlns:xlink="http://www.w3.org/1999/xlink" width="480pt" height="480pt" viewBox="0 0 480 480" version="1.1">
<g id="surface1">
<path style=" stroke:none;fill-rule:nonzero;fill:#5B5B5B;fill-opacity:1;" d="M 126 56.296875 L 126 234 L 120 234 C 113.367188 234 108 239.367188 108 246 C 108 252.632813 113.367188 258 120 258 L 360 258 C 366.632813 258 372 252.632813 372 246 C 372 239.367188 366.632813 234 360 234 L 354 234 L 354 56.296875 L 336.046875 65.273438 L 324.492188 59.296875 L 312.046875 65.320313 L 300 59.296875 L 288 65.296875 L 276 59.296875 L 264.046875 65.273438 L 252.492188 59.296875 L 240 65.34375 L 227.507813 59.296875 L 216 65.25 L 204.492188 59.296875 L 192 65.34375 L 179.507813 59.296875 L 167.90625 65.296875 L 155.507813 59.296875 L 143.953125 65.273438 Z M 155.695313 72.703125 L 168.09375 78.703125 L 179.695313 72.703125 L 192 78.65625 L 204.304688 72.703125 L 216 78.75 L 227.695313 72.703125 L 240 78.65625 L 252.304688 72.703125 L 263.953125 78.726563 L 276 72.703125 L 288 78.703125 L 300 72.703125 L 311.953125 78.679688 L 324.304688 72.703125 L 335.953125 78.726563 L 342 75.703125 L 342 246 L 138 246 L 138 75.703125 L 144.046875 78.726563 Z M 162 120 L 162 132 L 258 132 L 258 120 Z M 282 120 L 282 132 L 318 132 L 318 120 Z M 162 156 L 162 168 L 234 168 L 234 156 Z M 282 156 L 282 168 L 318 168 L 318 156 Z M 102 180 C 78.867188 180 60 198.867188 60 222 L 60 414 L 72 414 L 72 222 C 72 205.359375 85.359375 192 102 192 L 114 192 L 114 180 Z M 366 180 L 366 192 L 378 192 C 394.640625 192 408 205.359375 408 222 L 408 414 L 420 414 L 420 222 C 420 198.867188 401.132813 180 378 180 Z M 156 204 C 152.695313 204 150 206.695313 150 210 C 150 213.304688 152.695313 216 156 216 C 159.304688 216 162 213.304688 162 210 C 162 206.695313 159.304688 204 156 204 Z M 180 204 C 176.695313 204 174 206.695313 174 210 C 174 213.304688 176.695313 216 180 216 C 183.304688 216 186 213.304688 186 210 C 186 206.695313 183.304688 204 180 204 Z M 204 204 C 200.695313 204 198 206.695313 198 210 C 198 213.304688 200.695313 216 204 216 C 207.304688 216 210 213.304688 210 210 C 210 206.695313 207.304688 204 204 204 Z M 228 204 C 224.695313 204 222 206.695313 222 210 C 222 213.304688 224.695313 216 228 216 C 231.304688 216 234 213.304688 234 210 C 234 206.695313 231.304688 204 228 204 Z M 252 204 C 248.695313 204 246 206.695313 246 210 C 246 213.304688 248.695313 216 252 216 C 255.304688 216 258 213.304688 258 210 C 258 206.695313 255.304688 204 252 204 Z M 276 204 C 272.695313 204 270 206.695313 270 210 C 270 213.304688 272.695313 216 276 216 C 279.304688 216 282 213.304688 282 210 C 282 206.695313 279.304688 204 276 204 Z M 300 204 C 296.695313 204 294 206.695313 294 210 C 294 213.304688 296.695313 216 300 216 C 303.304688 216 306 213.304688 306 210 C 306 206.695313 303.304688 204 300 204 Z M 324 204 C 320.695313 204 318 206.695313 318 210 C 318 213.304688 320.695313 216 324 216 C 327.304688 216 330 213.304688 330 210 C 330 206.695313 327.304688 204 324 204 Z M 126 288 C 119.4375 288 114 293.4375 114 300 L 114 336 C 114 342.5625 119.4375 348 126 348 L 360 348 C 366.5625 348 372 342.5625 372 336 L 372 300 C 372 293.4375 366.5625 288 360 288 Z M 126 300 L 360 300 L 360 336 L 126 336 Z M 126 366 C 119.4375 366 114 371.4375 114 378 L 114 402 C 114 408.5625 119.4375 414 126 414 L 150 414 C 156.5625 414 162 408.5625 162 402 L 162 378 C 162 371.4375 156.5625 366 150 366 Z M 186 366 C 179.4375 366 174 371.4375 174 378 L 174 402 C 174 408.5625 179.4375 414 186 414 L 210 414 C 216.5625 414 222 408.5625 222 402 L 222 378 C 222 371.4375 216.5625 366 210 366 Z M 246 366 C 239.4375 366 234 371.4375 234 378 L 234 402 C 234 408.5625 239.4375 414 246 414 L 270 414 C 276.5625 414 282 408.5625 282 402 L 282 378 C 282 371.4375 276.5625 366 270 366 Z M 336 366 C 329.4375 366 324 371.4375 324 378 L 324 402 C 324 408.5625 329.4375 414 336 414 L 360 414 C 366.5625 414 372 408.5625 372 402 L 372 378 C 372 371.4375 366.5625 366 360 366 Z M 126 378 L 150 378 L 150 402 L 126 402 Z M 186 378 L 210 378 L 210 402 L 186 402 Z M 246 378 L 270 378 L 270 402 L 246 402 Z M 336 378 L 360 378 L 360 402 L 336 402 Z "/>
</g>
</svg>
