<?xml version="1.0" encoding="UTF-8"?>
<svg xmlns="http://www.w3.org/2000/svg" xmlns:xlink="http://www.w3.org/1999/xlink" width="480pt" height="480pt" viewBox="0 0 480 480" version="1.1">
<g id="surface1">
<path style=" stroke:none;fill-rule:nonzero;fill:#0E0101;fill-opacity:1;" d="M 354 48 C 317.671875 48 288 77.671875 288 114 C 288 114.09375 288 114.210938 288 114.304688 C 247.851563 117.398438 216 151.054688 216 192 C 216 234.960938 251.039063 270 294 270 C 336.960938 270 372 234.960938 372 192 C 372 187.125 371.484375 182.390625 370.617188 177.773438 C 398.976563 170.367188 420 144.585938 420 114 C 420 77.671875 390.328125 48 354 48 Z M 354 60 C 383.835938 60 408 84.164063 408 114 C 408 139.148438 390.75 160.195313 367.5 166.21875 C 365.578125 160.710938 363.023438 155.507813 359.976563 150.65625 C 359.976563 150.421875 360 150.210938 360 150 C 360 147.210938 358.078125 144.796875 355.382813 144.164063 C 346.59375 132.914063 334.828125 124.125 321.257813 119.039063 C 322.96875 117.9375 324 116.039063 324 114 C 324 110.695313 321.304688 108 318 108 C 314.695313 108 312 110.695313 312 114 C 312 114.796875 312.164063 115.59375 312.46875 116.34375 C 308.4375 115.335938 304.265625 114.632813 300 114.304688 C 300 114.210938 300 114.09375 300 114 C 300 84.164063 324.164063 60 354 60 Z M 354 72 C 350.695313 72 348 74.695313 348 78 C 348 81.304688 350.695313 84 354 84 C 357.304688 84 360 81.304688 360 78 C 360 74.695313 357.304688 72 354 72 Z M 328.617188 82.546875 C 327 82.523438 325.453125 83.15625 324.304688 84.304688 C 321.960938 86.648438 321.960938 90.445313 324.304688 92.789063 C 326.648438 95.132813 330.445313 95.132813 332.789063 92.789063 C 335.132813 90.445313 335.132813 86.648438 332.789063 84.304688 C 331.6875 83.203125 330.1875 82.570313 328.617188 82.546875 Z M 379.546875 82.570313 C 377.929688 82.523438 376.359375 83.15625 375.210938 84.304688 C 374.085938 85.429688 373.453125 86.953125 373.453125 88.546875 C 373.453125 90.140625 374.085938 91.664063 375.210938 92.8125 C 377.554688 95.132813 381.351563 95.132813 383.695313 92.789063 C 386.039063 90.445313 386.039063 86.648438 383.695313 84.304688 C 382.59375 83.203125 381.09375 82.570313 379.546875 82.570313 Z M 390 108 C 386.695313 108 384 110.695313 384 114 C 384 117.304688 386.695313 120 390 120 C 393.304688 120 396 117.304688 396 114 C 396 110.695313 393.304688 108 390 108 Z M 294 126 C 330.445313 126 360 155.554688 360 192 C 360 228.445313 330.445313 258 294 258 C 257.554688 258 228 228.445313 228 192 C 228 155.554688 257.554688 126 294 126 Z M 379.523438 133.476563 C 377.90625 133.429688 376.335938 134.0625 375.1875 135.210938 C 372.867188 137.578125 372.867188 141.375 375.210938 143.71875 C 377.554688 146.039063 381.351563 146.039063 383.695313 143.71875 C 386.039063 141.375 386.039063 137.554688 383.695313 135.210938 C 382.59375 134.109375 381.09375 133.476563 379.523438 133.476563 Z M 294 138 C 290.695313 138 288 140.695313 288 144 C 288 147.304688 290.695313 150 294 150 C 297.304688 150 300 147.304688 300 144 C 300 140.695313 297.304688 138 294 138 Z M 269.835938 144.445313 C 268.851563 144.445313 267.867188 144.726563 267 145.21875 C 264.117188 146.882813 263.132813 150.5625 264.796875 153.421875 C 266.460938 156.28125 270.117188 157.289063 273 155.625 C 274.359375 154.828125 275.367188 153.515625 275.789063 151.96875 C 276.210938 150.445313 276 148.804688 275.179688 147.421875 C 274.101563 145.523438 272.039063 144.375 269.835938 144.445313 Z M 317.71875 144.445313 C 315.679688 144.539063 313.828125 145.664063 312.796875 147.445313 C 312 148.804688 311.789063 150.445313 312.1875 151.992188 C 312.609375 153.539063 313.617188 154.851563 315 155.625 C 317.859375 157.289063 321.539063 156.304688 323.179688 153.445313 C 324.84375 150.5625 323.859375 146.90625 321 145.242188 C 319.992188 144.65625 318.867188 144.398438 317.71875 144.445313 Z M 335.414063 162 C 334.40625 162.023438 333.421875 162.304688 332.554688 162.796875 C 331.171875 163.59375 330.164063 164.90625 329.765625 166.453125 C 329.34375 167.976563 329.554688 169.617188 330.375 171 C 332.015625 173.859375 335.695313 174.84375 338.554688 173.179688 C 341.414063 171.539063 342.421875 167.859375 340.757813 165 C 339.65625 163.101563 337.617188 161.953125 335.414063 162 Z M 252.140625 162 C 250.101563 162.117188 248.25 163.242188 247.21875 165 C 246.421875 166.382813 246.210938 168.023438 246.632813 169.546875 C 247.03125 171.09375 248.039063 172.40625 249.421875 173.203125 C 250.804688 174 252.445313 174.210938 253.96875 173.8125 C 255.515625 173.390625 256.828125 172.382813 257.625 171 C 259.289063 168.140625 258.28125 164.460938 255.421875 162.820313 C 254.4375 162.234375 253.289063 161.953125 252.140625 162 Z M 246 186 C 242.695313 186 240 188.695313 240 192 C 240 195.304688 242.695313 198 246 198 C 249.304688 198 252 195.304688 252 192 C 252 188.695313 249.304688 186 246 186 Z M 342 186 C 338.695313 186 336 188.695313 336 192 C 336 195.304688 338.695313 198 342 198 C 345.304688 198 348 195.304688 348 192 C 348 188.695313 345.304688 186 342 186 Z M 252.28125 210 C 251.273438 210.023438 250.289063 210.304688 249.421875 210.796875 C 248.039063 211.59375 247.03125 212.90625 246.632813 214.453125 C 246.210938 215.976563 246.421875 217.617188 247.21875 219 C 248.882813 221.859375 252.5625 222.84375 255.421875 221.179688 C 258.28125 219.539063 259.289063 215.859375 257.625 213 C 256.523438 211.101563 254.484375 209.953125 252.28125 210 Z M 335.273438 210.023438 C 333.234375 210.117188 331.382813 211.242188 330.375 213 C 328.710938 215.882813 329.695313 219.539063 332.554688 221.203125 C 335.4375 222.867188 339.09375 221.882813 340.757813 219 C 342.421875 216.140625 341.4375 212.484375 338.554688 210.820313 C 337.570313 210.234375 336.421875 209.976563 335.273438 210.023438 Z M 317.835938 227.554688 C 316.851563 227.578125 315.867188 227.859375 315 228.375 C 313.617188 229.148438 312.609375 230.460938 312.1875 232.007813 C 311.789063 233.554688 312 235.195313 312.796875 236.554688 C 314.460938 239.4375 318.117188 240.421875 321 238.757813 C 323.859375 237.09375 324.84375 233.4375 323.179688 230.554688 C 322.101563 228.65625 320.039063 227.507813 317.835938 227.554688 Z M 269.71875 227.578125 C 267.65625 227.671875 265.804688 228.796875 264.796875 230.578125 C 263.132813 233.4375 264.117188 237.117188 267 238.78125 C 268.359375 239.578125 270 239.789063 271.546875 239.367188 C 273.09375 238.96875 274.40625 237.960938 275.179688 236.578125 C 276 235.195313 276.210938 233.554688 275.789063 232.03125 C 275.367188 230.484375 274.359375 229.171875 273 228.375 C 271.992188 227.789063 270.84375 227.53125 269.71875 227.578125 Z M 138 234 C 132.117188 234 126.492188 235.125 121.3125 237.070313 C 121.125 237.09375 121.359375 236.976563 120.679688 237.1875 L 120.84375 237.140625 C 107.859375 241.078125 46.40625 258.210938 46.40625 258.210938 C 44.25 258.726563 42.5625 260.367188 42 262.476563 C 41.414063 264.609375 42.046875 266.882813 43.640625 268.40625 C 45.210938 269.90625 47.507813 270.445313 49.59375 269.789063 C 49.59375 269.789063 109.6875 253.054688 123.914063 248.742188 C 124.335938 248.671875 124.757813 248.578125 125.15625 248.414063 C 129.1875 246.867188 133.476563 246 138 246 C 144.585938 246 150.703125 247.78125 156.023438 250.875 C 156.234375 251.015625 156.46875 251.109375 156.679688 251.203125 C 156.726563 251.226563 156.773438 251.25 156.820313 251.273438 C 194.625 269.132813 271.429688 307.570313 271.617188 307.6875 L 271.664063 307.6875 C 271.289063 307.5 271.335938 307.523438 272.0625 307.992188 C 272.203125 308.085938 272.34375 308.179688 272.460938 308.25 C 278.15625 311.320313 282 317.132813 282 324 C 282 327.609375 280.945313 330.890625 279.117188 333.726563 C 273.84375 341.929688 263.625 343.664063 254.085938 339.070313 C 253.96875 339.023438 253.851563 338.976563 253.757813 338.90625 L 249.65625 337.242188 C 247.664063 336.351563 245.320313 336.632813 243.585938 337.96875 C 241.851563 339.28125 240.960938 341.460938 241.289063 343.617188 C 241.59375 345.773438 243.070313 347.601563 245.132813 348.375 L 249.210938 350.039063 L 248.882813 349.875 C 260.953125 355.6875 275.695313 354.375 285.117188 345.1875 L 291.65625 349.664063 C 293.320313 350.8125 295.476563 351.023438 297.351563 350.25 L 395.789063 309.5625 L 393.28125 304.570313 C 394.710938 307.40625 398.085938 308.648438 400.992188 307.40625 C 403.148438 306.492188 405.492188 306 408 306 C 418.007813 306 426 313.992188 426 324 C 426 330.84375 422.179688 336.632813 416.554688 339.726563 C 413.835938 341.203125 412.6875 344.554688 413.976563 347.414063 L 411.726563 342.351563 L 293.4375 405.140625 C 293.625 405.046875 293.460938 405.117188 293.179688 405.210938 C 292.898438 405.304688 292.617188 405.398438 292.359375 405.539063 C 289.125 407.085938 285.679688 408 282 408 C 278.460938 408 275.132813 407.179688 272.039063 405.75 C 271.898438 405.703125 271.757813 405.632813 271.617188 405.585938 C 271.171875 405.421875 271.101563 405.375 271.40625 405.539063 L 122.34375 342.46875 C 120.984375 341.90625 119.484375 341.835938 118.101563 342.304688 L 46.101563 366.304688 C 42.960938 367.359375 41.25 370.757813 42.304688 373.898438 C 43.359375 377.039063 46.757813 378.75 49.898438 377.695313 L 119.742188 354.398438 L 266.578125 416.507813 C 267.492188 416.929688 267.679688 416.929688 267.46875 416.835938 C 271.851563 418.804688 276.773438 420 282 420 C 287.648438 420 292.921875 418.59375 297.5625 416.34375 C 297.914063 416.226563 298.242188 416.15625 298.6875 415.921875 C 298.757813 415.898438 298.828125 415.851563 298.875 415.828125 L 422.273438 350.34375 C 423.28125 349.804688 424.101563 349.007813 424.664063 348.023438 C 432.398438 342.632813 438 334.171875 438 324 C 438 307.5 424.5 294 408 294 C 404.71875 294 401.671875 294.890625 398.71875 295.875 L 398.695313 295.875 C 397.898438 295.875 397.101563 296.015625 396.375 296.34375 L 295.757813 337.921875 L 290.8125 334.570313 C 292.195313 331.148438 294 327.890625 294 324 C 294 312.609375 287.507813 302.71875 278.15625 297.679688 L 278.578125 297.9375 C 278.789063 298.054688 278.390625 297.679688 277.3125 297.09375 C 277.265625 297.070313 277.21875 297.046875 277.148438 297.023438 C 277.148438 297.023438 199.96875 258.351563 161.8125 240.351563 C 161.765625 240.328125 161.71875 240.304688 161.695313 240.28125 C 161.015625 240 160.96875 240 161.273438 240.117188 C 154.382813 236.273438 146.460938 234 138 234 Z M 294 234 C 290.695313 234 288 236.695313 288 240 C 288 243.304688 290.695313 246 294 246 C 297.304688 246 300 243.304688 300 240 C 300 236.695313 297.304688 234 294 234 Z M 174 312 C 170.695313 312 168 314.695313 168 318 C 168 321.304688 170.695313 324 174 324 C 177.304688 324 180 321.304688 180 318 C 180 314.695313 177.304688 312 174 312 Z M 192 318 C 188.695313 318 186 320.695313 186 324 C 186 327.304688 188.695313 330 192 330 C 195.304688 330 198 327.304688 198 324 C 198 320.695313 195.304688 318 192 318 Z M 210 324 C 206.695313 324 204 326.695313 204 330 C 204 333.304688 206.695313 336 210 336 C 213.304688 336 216 333.304688 216 330 C 216 326.695313 213.304688 324 210 324 Z M 228 330 C 224.695313 330 222 332.695313 222 336 C 222 339.304688 224.695313 342 228 342 C 231.304688 342 234 339.304688 234 336 C 234 332.695313 231.304688 330 228 330 Z "/>
</g>
</svg>
