<?xml version="1.0" encoding="UTF-8"?>
<svg xmlns="http://www.w3.org/2000/svg" xmlns:xlink="http://www.w3.org/1999/xlink" width="500pt" height="500pt" viewBox="0 0 500 500" version="1.1">
<g id="surface1">
<path style=" stroke:none;fill-rule:nonzero;fill:#0E0101;fill-opacity:1;" d="M 49.601563 0 C 34.644531 0 21.816406 9.300781 13.332031 22.011719 C 4.84375 34.722656 0 51.269531 0 69.445313 C 0 87.621094 4.84375 104.167969 13.332031 116.878906 C 21.816406 129.589844 34.644531 138.890625 49.601563 138.890625 L 79.363281 138.890625 L 79.363281 406.746094 C 79.363281 460.457031 113.195313 496.03125 148.808594 496.03125 L 446.429688 496.03125 C 446.738281 496.03125 447.046875 496.03125 447.359375 496.03125 C 447.476563 496.03125 447.550781 496.03125 447.667969 496.03125 C 448.171875 496.03125 448.714844 495.761719 449.21875 495.722656 C 462.976563 494.636719 474.757813 485.957031 482.699219 474.019531 C 491.1875 461.308594 496.03125 444.761719 496.03125 426.585938 C 496.03125 408.414063 491.1875 391.863281 482.699219 379.152344 C 474.214844 366.445313 461.386719 357.144531 446.429688 357.144531 L 396.824219 357.144531 L 396.824219 269.40625 C 396.863281 268.902344 396.863281 268.359375 396.824219 267.855469 L 396.824219 128.96875 C 396.902344 128.347656 396.902344 127.726563 396.824219 127.109375 L 396.824219 89.285156 C 396.824219 35.574219 362.996094 0 327.382813 0 Z M 49.601563 19.839844 L 293.277344 19.839844 C 292.660156 20.695313 291.691406 21.121094 291.109375 22.011719 C 282.621094 34.722656 277.777344 51.269531 277.777344 69.445313 C 277.777344 87.621094 282.621094 104.167969 291.109375 116.878906 C 291.691406 117.769531 292.660156 118.195313 293.277344 119.046875 L 91.457031 119.046875 C 90.449219 118.777344 89.402344 118.660156 88.355469 118.738281 C 88.046875 118.816406 87.734375 118.929688 87.425781 119.046875 L 49.601563 119.046875 C 42.742188 119.046875 35.652344 114.902344 29.761719 106.027344 C 23.871094 97.152344 19.839844 84.015625 19.839844 69.445313 C 19.839844 54.875 23.871094 41.738281 29.761719 32.863281 C 35.652344 23.988281 42.742188 19.839844 49.601563 19.839844 Z M 327.070313 19.839844 C 327.1875 19.839844 327.265625 19.839844 327.382813 19.839844 C 349.316406 19.839844 376.984375 43.789063 376.984375 89.285156 L 376.984375 127.109375 C 376.90625 127.726563 376.90625 128.347656 376.984375 128.96875 L 376.984375 267.855469 C 376.984375 268.167969 376.984375 268.476563 376.984375 268.789063 L 376.984375 362.414063 C 375.667969 365.164063 375.667969 368.34375 376.984375 371.09375 L 376.984375 406.746094 C 376.984375 436.351563 387.214844 460.535156 402.40625 476.191406 L 148.808594 476.191406 C 126.875 476.191406 99.207031 452.242188 99.207031 406.746094 L 99.207031 138.890625 L 327.382813 138.890625 L 327.382813 119.046875 C 320.523438 119.046875 313.429688 114.902344 307.539063 106.027344 C 301.648438 97.152344 297.617188 84.015625 297.617188 69.445313 C 297.617188 54.875 301.648438 41.738281 307.539063 32.863281 C 313.351563 24.144531 320.289063 19.957031 327.070313 19.839844 Z M 146.019531 208.332031 C 140.554688 209.109375 136.71875 214.183594 137.492188 219.648438 C 138.269531 225.113281 143.34375 228.949219 148.808594 228.175781 L 168.652344 228.175781 C 172.214844 228.214844 175.546875 226.351563 177.371094 223.253906 C 179.152344 220.152344 179.152344 216.355469 177.371094 213.253906 C 175.546875 210.15625 172.214844 208.292969 168.652344 208.332031 L 148.808594 208.332031 C 148.5 208.332031 148.191406 208.332031 147.878906 208.332031 C 147.570313 208.332031 147.257813 208.332031 146.949219 208.332031 C 146.640625 208.332031 146.328125 208.332031 146.019531 208.332031 Z M 205.542969 208.332031 C 200.078125 209.109375 196.242188 214.183594 197.019531 219.648438 C 197.792969 225.113281 202.871094 228.949219 208.332031 228.175781 L 327.382813 228.175781 C 330.945313 228.214844 334.277344 226.351563 336.101563 223.253906 C 337.882813 220.152344 337.882813 216.355469 336.101563 213.253906 C 334.277344 210.15625 330.945313 208.292969 327.382813 208.332031 L 208.332031 208.332031 C 208.023438 208.332031 207.714844 208.332031 207.402344 208.332031 C 207.09375 208.332031 206.785156 208.332031 206.472656 208.332031 C 206.164063 208.332031 205.851563 208.332031 205.542969 208.332031 Z M 146.019531 267.855469 C 140.554688 268.632813 136.71875 273.707031 137.492188 279.171875 C 138.269531 284.636719 143.34375 288.472656 148.808594 287.699219 L 168.652344 287.699219 C 172.214844 287.738281 175.546875 285.878906 177.371094 282.777344 C 179.152344 279.675781 179.152344 275.878906 177.371094 272.777344 C 175.546875 269.679688 172.214844 267.820313 168.652344 267.855469 L 148.808594 267.855469 C 148.5 267.855469 148.191406 267.855469 147.878906 267.855469 C 147.570313 267.855469 147.257813 267.855469 146.949219 267.855469 C 146.640625 267.855469 146.328125 267.855469 146.019531 267.855469 Z M 205.542969 267.855469 C 200.078125 268.632813 196.242188 273.707031 197.019531 279.171875 C 197.792969 284.636719 202.871094 288.472656 208.332031 287.699219 L 327.382813 287.699219 C 330.945313 287.738281 334.277344 285.878906 336.101563 282.777344 C 337.882813 279.675781 337.882813 275.878906 336.101563 272.777344 C 334.277344 269.679688 330.945313 267.820313 327.382813 267.855469 L 208.332031 267.855469 C 208.023438 267.855469 207.714844 267.855469 207.402344 267.855469 C 207.09375 267.855469 206.785156 267.855469 206.472656 267.855469 C 206.164063 267.855469 205.851563 267.855469 205.542969 267.855469 Z M 146.019531 327.382813 C 140.554688 328.15625 136.71875 333.234375 137.492188 338.695313 C 138.269531 344.160156 143.34375 347.996094 148.808594 347.222656 L 168.652344 347.222656 C 172.214844 347.261719 175.546875 345.402344 177.371094 342.300781 C 179.152344 339.199219 179.152344 335.402344 177.371094 332.300781 C 175.546875 329.203125 172.214844 327.34375 168.652344 327.382813 L 148.808594 327.382813 C 148.5 327.382813 148.191406 327.382813 147.878906 327.382813 C 147.570313 327.382813 147.257813 327.382813 146.949219 327.382813 C 146.640625 327.382813 146.328125 327.382813 146.019531 327.382813 Z M 205.542969 327.382813 C 200.078125 328.15625 196.242188 333.234375 197.019531 338.695313 C 197.792969 344.160156 202.871094 347.996094 208.332031 347.222656 L 327.382813 347.222656 C 330.945313 347.261719 334.277344 345.402344 336.101563 342.300781 C 337.882813 339.199219 337.882813 335.402344 336.101563 332.300781 C 334.277344 329.203125 330.945313 327.34375 327.382813 327.382813 L 208.332031 327.382813 C 208.023438 327.382813 207.714844 327.382813 207.402344 327.382813 C 207.09375 327.382813 206.785156 327.382813 206.472656 327.382813 C 206.164063 327.382813 205.851563 327.382813 205.542969 327.382813 Z M 396.824219 376.984375 L 446.429688 376.984375 C 453.289063 376.984375 460.378906 381.128906 466.269531 390.003906 C 472.160156 398.878906 476.191406 412.015625 476.191406 426.585938 C 476.191406 441.160156 472.160156 454.296875 466.269531 463.167969 C 460.535156 471.773438 453.714844 475.957031 447.046875 476.191406 C 446.855469 476.191406 446.621094 476.191406 446.429688 476.191406 C 424.496094 476.191406 396.824219 452.242188 396.824219 406.746094 Z M 146.019531 386.90625 C 140.554688 387.679688 136.71875 392.757813 137.492188 398.21875 C 138.269531 403.683594 143.34375 407.519531 148.808594 406.746094 L 168.652344 406.746094 C 172.214844 406.785156 175.546875 404.925781 177.371094 401.824219 C 179.152344 398.722656 179.152344 394.925781 177.371094 391.828125 C 175.546875 388.726563 172.214844 386.867188 168.652344 386.90625 L 148.808594 386.90625 C 148.5 386.90625 148.191406 386.90625 147.878906 386.90625 C 147.570313 386.90625 147.257813 386.90625 146.949219 386.90625 C 146.640625 386.90625 146.328125 386.90625 146.019531 386.90625 Z M 205.542969 386.90625 C 200.078125 387.679688 196.242188 392.757813 197.019531 398.21875 C 197.792969 403.683594 202.871094 407.519531 208.332031 406.746094 L 327.382813 406.746094 C 330.945313 406.785156 334.277344 404.925781 336.101563 401.824219 C 337.882813 398.722656 337.882813 394.925781 336.101563 391.828125 C 334.277344 388.726563 330.945313 386.867188 327.382813 386.90625 L 208.332031 386.90625 C 208.023438 386.90625 207.714844 386.90625 207.402344 386.90625 C 207.09375 386.90625 206.785156 386.90625 206.472656 386.90625 C 206.164063 386.90625 205.851563 386.90625 205.542969 386.90625 Z "/>
</g>
</svg>
