<?xml version="1.0" encoding="UTF-8"?>
<svg xmlns="http://www.w3.org/2000/svg" xmlns:xlink="http://www.w3.org/1999/xlink" width="480pt" height="480pt" viewBox="0 0 480 480" version="1.1">
<g id="surface1">
<path style=" stroke:none;fill-rule:nonzero;fill:#5B5B5B;fill-opacity:1;" d="M 90.304688 60 C 80.4375 60 72.304688 68.132813 72.304688 78 L 72.304688 105.140625 L 42 166.59375 L 42 198 C 42 210.234375 49.429688 220.78125 60 225.445313 L 60 426 L 420 426 L 420 225.445313 C 430.570313 220.78125 438 210.234375 438 198 L 438 166.59375 L 407.695313 105.140625 L 407.695313 78 C 407.695313 68.132813 399.5625 60 389.695313 60 Z M 90.304688 72 L 389.695313 72 C 393.070313 72 395.695313 74.601563 395.695313 78 L 395.695313 107.929688 L 396.304688 109.195313 L 426 169.40625 L 426 198 C 426 208.007813 418.007813 216 408 216 C 397.992188 216 390 208.007813 390 198 L 378 198 C 378 208.007813 370.007813 216 360 216 C 349.992188 216 342 208.007813 342 198 L 330 198 C 330 208.007813 322.007813 216 312 216 C 301.992188 216 294 208.007813 294 198 L 282 198 C 282 208.007813 274.007813 216 264 216 C 253.992188 216 246 208.007813 246 198 L 234 198 C 234 208.007813 226.007813 216 216 216 C 205.992188 216 198 208.007813 198 198 L 186 198 C 186 208.007813 178.007813 216 168 216 C 157.992188 216 150 208.007813 150 198 L 138 198 C 138 208.007813 130.007813 216 120 216 C 109.992188 216 102 208.007813 102 198 L 90 198 C 90 208.007813 82.007813 216 72 216 C 61.992188 216 54 208.007813 54 198 L 54 169.40625 L 84.304688 107.929688 L 84.304688 78 C 84.304688 74.601563 86.929688 72 90.304688 72 Z M 96 96 C 92.695313 96 90 98.695313 90 102 C 90 105.304688 92.695313 108 96 108 C 99.304688 108 102 105.304688 102 102 C 102 98.695313 99.304688 96 96 96 Z M 120 96 C 116.695313 96 114 98.695313 114 102 C 114 105.304688 116.695313 108 120 108 C 123.304688 108 126 105.304688 126 102 C 126 98.695313 123.304688 96 120 96 Z M 144 96 C 140.695313 96 138 98.695313 138 102 C 138 105.304688 140.695313 108 144 108 C 147.304688 108 150 105.304688 150 102 C 150 98.695313 147.304688 96 144 96 Z M 168 96 C 164.695313 96 162 98.695313 162 102 C 162 105.304688 164.695313 108 168 108 C 171.304688 108 174 105.304688 174 102 C 174 98.695313 171.304688 96 168 96 Z M 192 96 C 188.695313 96 186 98.695313 186 102 C 186 105.304688 188.695313 108 192 108 C 195.304688 108 198 105.304688 198 102 C 198 98.695313 195.304688 96 192 96 Z M 216 96 C 212.695313 96 210 98.695313 210 102 C 210 105.304688 212.695313 108 216 108 C 219.304688 108 222 105.304688 222 102 C 222 98.695313 219.304688 96 216 96 Z M 240 96 C 236.695313 96 234 98.695313 234 102 C 234 105.304688 236.695313 108 240 108 C 243.304688 108 246 105.304688 246 102 C 246 98.695313 243.304688 96 240 96 Z M 264 96 C 260.695313 96 258 98.695313 258 102 C 258 105.304688 260.695313 108 264 108 C 267.304688 108 270 105.304688 270 102 C 270 98.695313 267.304688 96 264 96 Z M 288 96 C 284.695313 96 282 98.695313 282 102 C 282 105.304688 284.695313 108 288 108 C 291.304688 108 294 105.304688 294 102 C 294 98.695313 291.304688 96 288 96 Z M 312 96 C 308.695313 96 306 98.695313 306 102 C 306 105.304688 308.695313 108 312 108 C 315.304688 108 318 105.304688 318 102 C 318 98.695313 315.304688 96 312 96 Z M 336 96 C 332.695313 96 330 98.695313 330 102 C 330 105.304688 332.695313 108 336 108 C 339.304688 108 342 105.304688 342 102 C 342 98.695313 339.304688 96 336 96 Z M 360 96 C 356.695313 96 354 98.695313 354 102 C 354 105.304688 356.695313 108 360 108 C 363.304688 108 366 105.304688 366 102 C 366 98.695313 363.304688 96 360 96 Z M 384 96 C 380.695313 96 378 98.695313 378 102 C 378 105.304688 380.695313 108 384 108 C 387.304688 108 390 105.304688 390 102 C 390 98.695313 387.304688 96 384 96 Z M 72 168 C 68.695313 168 66 170.695313 66 174 C 66 177.304688 68.695313 180 72 180 C 75.304688 180 78 177.304688 78 174 C 78 170.695313 75.304688 168 72 168 Z M 96 168 C 92.695313 168 90 170.695313 90 174 C 90 177.304688 92.695313 180 96 180 C 99.304688 180 102 177.304688 102 174 C 102 170.695313 99.304688 168 96 168 Z M 120 168 C 116.695313 168 114 170.695313 114 174 C 114 177.304688 116.695313 180 120 180 C 123.304688 180 126 177.304688 126 174 C 126 170.695313 123.304688 168 120 168 Z M 144 168 C 140.695313 168 138 170.695313 138 174 C 138 177.304688 140.695313 180 144 180 C 147.304688 180 150 177.304688 150 174 C 150 170.695313 147.304688 168 144 168 Z M 168 168 C 164.695313 168 162 170.695313 162 174 C 162 177.304688 164.695313 180 168 180 C 171.304688 180 174 177.304688 174 174 C 174 170.695313 171.304688 168 168 168 Z M 192 168 C 188.695313 168 186 170.695313 186 174 C 186 177.304688 188.695313 180 192 180 C 195.304688 180 198 177.304688 198 174 C 198 170.695313 195.304688 168 192 168 Z M 216 168 C 212.695313 168 210 170.695313 210 174 C 210 177.304688 212.695313 180 216 180 C 219.304688 180 222 177.304688 222 174 C 222 170.695313 219.304688 168 216 168 Z M 240 168 C 236.695313 168 234 170.695313 234 174 C 234 177.304688 236.695313 180 240 180 C 243.304688 180 246 177.304688 246 174 C 246 170.695313 243.304688 168 240 168 Z M 264 168 C 260.695313 168 258 170.695313 258 174 C 258 177.304688 260.695313 180 264 180 C 267.304688 180 270 177.304688 270 174 C 270 170.695313 267.304688 168 264 168 Z M 288 168 C 284.695313 168 282 170.695313 282 174 C 282 177.304688 284.695313 180 288 180 C 291.304688 180 294 177.304688 294 174 C 294 170.695313 291.304688 168 288 168 Z M 312 168 C 308.695313 168 306 170.695313 306 174 C 306 177.304688 308.695313 180 312 180 C 315.304688 180 318 177.304688 318 174 C 318 170.695313 315.304688 168 312 168 Z M 336 168 C 332.695313 168 330 170.695313 330 174 C 330 177.304688 332.695313 180 336 180 C 339.304688 180 342 177.304688 342 174 C 342 170.695313 339.304688 168 336 168 Z M 360 168 C 356.695313 168 354 170.695313 354 174 C 354 177.304688 356.695313 180 360 180 C 363.304688 180 366 177.304688 366 174 C 366 170.695313 363.304688 168 360 168 Z M 384 168 C 380.695313 168 378 170.695313 378 174 C 378 177.304688 380.695313 180 384 180 C 387.304688 180 390 177.304688 390 174 C 390 170.695313 387.304688 168 384 168 Z M 408 168 C 404.695313 168 402 170.695313 402 174 C 402 177.304688 404.695313 180 408 180 C 411.304688 180 414 177.304688 414 174 C 414 170.695313 411.304688 168 408 168 Z M 96 215.039063 C 101.460938 222.679688 109.945313 228 120 228 C 130.054688 228 138.539063 222.679688 144 215.039063 C 149.460938 222.679688 157.945313 228 168 228 C 178.054688 228 186.539063 222.679688 192 215.039063 C 197.460938 222.679688 205.945313 228 216 228 C 226.054688 228 234.539063 222.679688 240 215.039063 C 245.460938 222.679688 253.945313 228 264 228 C 274.054688 228 282.539063 222.679688 288 215.039063 C 293.460938 222.679688 301.945313 228 312 228 C 322.054688 228 330.539063 222.679688 336 215.039063 C 341.460938 222.679688 349.945313 228 360 228 C 370.054688 228 378.539063 222.679688 384 215.039063 C 389.460938 222.679688 397.945313 228 408 228 L 408 414 L 366 414 L 366 384 C 369.304688 384 372 381.304688 372 378 C 372 374.695313 369.304688 372 366 372 L 366 264 L 258 264 L 258 372 C 254.695313 372 252 374.695313 252 378 C 252 381.304688 254.695313 384 258 384 L 258 414 L 72 414 L 72 228 C 82.054688 228 90.539063 222.679688 96 215.039063 Z M 114 264 L 114 342 L 210 342 L 210 264 Z M 126 276 L 198 276 L 198 330 L 126 330 Z M 270 276 L 354 276 L 354 414 L 270 414 Z M 333 342 C 328.03125 342 324 346.03125 324 351 C 324 355.96875 328.03125 360 333 360 C 337.96875 360 342 355.96875 342 351 C 342 346.03125 337.96875 342 333 342 Z M 90 372 C 86.695313 372 84 374.695313 84 378 C 84 381.304688 86.695313 384 90 384 C 93.304688 384 96 381.304688 96 378 C 96 374.695313 93.304688 372 90 372 Z M 114 372 C 110.695313 372 108 374.695313 108 378 C 108 381.304688 110.695313 384 114 384 C 117.304688 384 120 381.304688 120 378 C 120 374.695313 117.304688 372 114 372 Z M 138 372 C 134.695313 372 132 374.695313 132 378 C 132 381.304688 134.695313 384 138 384 C 141.304688 384 144 381.304688 144 378 C 144 374.695313 141.304688 372 138 372 Z M 162 372 C 158.695313 372 156 374.695313 156 378 C 156 381.304688 158.695313 384 162 384 C 165.304688 384 168 381.304688 168 378 C 168 374.695313 165.304688 372 162 372 Z M 186 372 C 182.695313 372 180 374.695313 180 378 C 180 381.304688 182.695313 384 186 384 C 189.304688 384 192 381.304688 192 378 C 192 374.695313 189.304688 372 186 372 Z M 210 372 C 206.695313 372 204 374.695313 204 378 C 204 381.304688 206.695313 384 210 384 C 213.304688 384 216 381.304688 216 378 C 216 374.695313 213.304688 372 210 372 Z M 234 372 C 230.695313 372 228 374.695313 228 378 C 228 381.304688 230.695313 384 234 384 C 237.304688 384 240 381.304688 240 378 C 240 374.695313 237.304688 372 234 372 Z M 390 372 C 386.695313 372 384 374.695313 384 378 C 384 381.304688 386.695313 384 390 384 C 393.304688 384 396 381.304688 396 378 C 396 374.695313 393.304688 372 390 372 Z "/>
</g>
</svg>
